<?xml version="1.0" encoding="utf-8"?>
<!-- Generator: Adobe Illustrator 16.0.0, SVG Export Plug-In . SVG Version: 6.00 Build 0)  -->
<!DOCTYPE svg PUBLIC "-//W3C//DTD SVG 1.1//EN" "http://www.w3.org/Graphics/SVG/1.1/DTD/svg11.dtd">
<svg version="1.1" id="Layer_1" xmlns="http://www.w3.org/2000/svg" xmlns:xlink="http://www.w3.org/1999/xlink" x="0px" y="0px"
	 width="56.938px" height="51.315px" viewBox="0 0 56.938 51.315" enable-background="new 0 0 56.938 51.315" xml:space="preserve">
<g>
	<g>
		<g>
			<path fill="#FFFFFF" d="M30.958,49.392c-0.76,0-1.529-0.18-2.246-0.563c-2.338-1.243-3.225-4.145-1.98-6.482L47.914,2.542
				c1.244-2.336,4.148-3.223,6.482-1.979c2.336,1.244,3.223,4.146,1.979,6.482L35.193,46.851
				C34.332,48.47,32.673,49.392,30.958,49.392z"/>
		</g>
		<g>
			<path fill="#FFFFFF" d="M30.966,49.392c-1.684,0-3.318-0.89-4.193-2.468L4.685,7.119C3.402,4.804,4.236,1.887,6.55,0.603
				c2.313-1.281,5.232-0.449,6.516,1.866l22.088,39.806c1.283,2.314,0.449,5.231-1.865,6.517
				C32.552,49.199,31.753,49.392,30.966,49.392z"/>
		</g>
	</g>
	<g>
		<g>
			<path fill="#8376A6" stroke="#2D273F" stroke-miterlimit="10" d="M27.376,50.815c-0.76,0-1.531-0.181-2.248-0.563
				c-2.336-1.243-3.223-4.146-1.979-6.482L44.332,3.964c1.242-2.336,4.146-3.223,6.48-1.979c2.338,1.244,3.225,4.146,1.98,6.482
				L31.611,48.273C30.75,49.892,29.091,50.815,27.376,50.815z"/>
		</g>
		<g>
			<path fill="#8376A6" stroke="#2D273F" stroke-miterlimit="10" d="M27.384,50.815c-1.686,0-3.32-0.89-4.195-2.468L1.103,8.541
				C-0.182,6.227,0.654,3.31,2.968,2.025c2.313-1.281,5.23-0.449,6.516,1.866L31.57,43.697c1.285,2.314,0.449,5.23-1.865,6.516
				C28.968,50.621,28.171,50.815,27.384,50.815z"/>
		</g>
	</g>
</g>
</svg>
