<?xml version="1.0" encoding="utf-8"?>
<!-- Generator: Adobe Illustrator 16.0.0, SVG Export Plug-In . SVG Version: 6.00 Build 0)  -->
<!DOCTYPE svg PUBLIC "-//W3C//DTD SVG 1.1//EN" "http://www.w3.org/Graphics/SVG/1.1/DTD/svg11.dtd">
<svg version="1.1" id="Layer_1" xmlns="http://www.w3.org/2000/svg" xmlns:xlink="http://www.w3.org/1999/xlink" x="0px" y="0px"
	 width="31.113px" height="28.067px" viewBox="0 0 31.113 28.067" enable-background="new 0 0 31.113 28.067" xml:space="preserve">
<g>
	<g opacity="0.7">
		<g>
			<path fill="#2D273F" stroke="#2D273F" stroke-width="0.5417" stroke-miterlimit="10" d="M14.343,1.042
				c0.411,0,0.828,0.098,1.216,0.305c1.267,0.674,1.747,2.245,1.073,3.511L5.159,26.42c-0.674,1.266-2.247,1.745-3.512,1.072
				c-1.265-0.674-1.745-2.246-1.071-3.512L12.049,2.418C12.516,1.542,13.414,1.042,14.343,1.042z"/>
		</g>
		<g>
			<path fill="#2D273F" stroke="#2D273F" stroke-width="0.5417" stroke-miterlimit="10" d="M14.339,1.042
				c0.912,0,1.797,0.482,2.271,1.337L28.575,23.94c0.694,1.254,0.243,2.834-1.011,3.529c-1.252,0.694-2.834,0.244-3.529-1.011
				L12.07,4.897c-0.695-1.253-0.243-2.833,1.011-3.53C13.48,1.147,13.913,1.042,14.339,1.042z"/>
		</g>
	</g>
	<g>
		<g>
			<path fill="#8376A6" stroke="#2D273F" stroke-width="0.5417" stroke-miterlimit="10" d="M16.283,0.271
				c0.412,0,0.83,0.098,1.218,0.305c1.266,0.674,1.746,2.245,1.072,3.511L7.099,25.649c-0.673,1.266-2.246,1.745-3.51,1.072
				c-1.267-0.674-1.747-2.246-1.073-3.512L13.99,1.648C14.456,0.771,15.354,0.271,16.283,0.271z"/>
		</g>
		<g>
			<path fill="#8376A6" stroke="#2D273F" stroke-width="0.5417" stroke-miterlimit="10" d="M16.279,0.271
				c0.913,0,1.798,0.481,2.272,1.337L30.515,23.17c0.696,1.254,0.244,2.834-1.01,3.529c-1.252,0.694-2.833,0.244-3.529-1.01
				L14.012,4.126c-0.696-1.252-0.243-2.833,1.011-3.529C15.421,0.376,15.853,0.271,16.279,0.271z"/>
		</g>
	</g>
</g>
</svg>
