<?xml version="1.0" encoding="utf-8"?>
<!-- Generator: Adobe Illustrator 16.0.0, SVG Export Plug-In . SVG Version: 6.00 Build 0)  -->
<!DOCTYPE svg PUBLIC "-//W3C//DTD SVG 1.1//EN" "http://www.w3.org/Graphics/SVG/1.1/DTD/svg11.dtd">
<svg version="1.1" id="Layer_1" xmlns="http://www.w3.org/2000/svg" xmlns:xlink="http://www.w3.org/1999/xlink" x="0px" y="0px"
	 width="281.836px" height="104.557px" viewBox="0 0 281.836 104.557" enable-background="new 0 0 281.836 104.557"
	 xml:space="preserve">
<rect x="196.362" y="38.865" fill="#8376A6" stroke="#8376A6" stroke-width="9" stroke-miterlimit="10" width="2.457" height="39.878"/>
<g enable-background="new    ">
	<path fill="none" stroke="#8376A6" stroke-width="9" stroke-miterlimit="10" d="M209.188,50.041l-1.184,3.584h-1.521l3.872-11.396
		h1.774l3.889,11.396h-1.572l-1.217-3.584H209.188z M212.924,48.891l-1.115-3.279c-0.254-0.744-0.423-1.42-0.592-2.08h-0.034
		c-0.169,0.677-0.354,1.37-0.575,2.063l-1.115,3.296H212.924z"/>
	<path fill="none" stroke="#8376A6" stroke-width="9" stroke-miterlimit="10" d="M217.69,42.382
		c0.743-0.152,1.809-0.236,2.822-0.236c1.572,0,2.588,0.287,3.297,0.93c0.575,0.507,0.896,1.285,0.896,2.164
		c0,1.505-0.947,2.502-2.146,2.908v0.051c0.879,0.304,1.402,1.115,1.673,2.299c0.372,1.59,0.643,2.688,0.88,3.128h-1.521
		c-0.187-0.321-0.44-1.302-0.762-2.722c-0.338-1.572-0.947-2.164-2.282-2.215h-1.386v4.937h-1.471V42.382z M219.161,47.573h1.504
		c1.572,0,2.57-0.862,2.57-2.164c0-1.471-1.065-2.113-2.621-2.13c-0.71,0-1.217,0.067-1.453,0.135V47.573z"/>
	<path fill="none" stroke="#8376A6" stroke-width="9" stroke-miterlimit="10" d="M229.098,43.481h-3.467V42.23h8.438v1.251h-3.482
		v10.145h-1.488V43.481z"/>
	<path fill="none" stroke="#8376A6" stroke-width="9" stroke-miterlimit="10" d="M236.804,42.23v11.396h-1.472V42.23H236.804z"/>
	<path fill="none" stroke="#8376A6" stroke-width="9" stroke-miterlimit="10" d="M239.17,51.833
		c0.658,0.405,1.623,0.744,2.637,0.744c1.505,0,2.385-0.795,2.385-1.944c0-1.065-0.609-1.674-2.148-2.266
		c-1.859-0.659-3.009-1.623-3.009-3.229c0-1.775,1.471-3.094,3.686-3.094c1.167,0,2.013,0.271,2.519,0.558l-0.405,1.2
		c-0.372-0.202-1.132-0.541-2.164-0.541c-1.556,0-2.147,0.931-2.147,1.708c0,1.065,0.693,1.589,2.266,2.198
		c1.928,0.743,2.908,1.674,2.908,3.347c0,1.759-1.302,3.28-3.99,3.28c-1.099,0-2.299-0.321-2.908-0.727L239.17,51.833z"/>
	<path fill="none" stroke="#8376A6" stroke-width="9" stroke-miterlimit="10" d="M249.547,50.041l-1.184,3.584h-1.521l3.872-11.396
		h1.774l3.889,11.396h-1.572l-1.217-3.584H249.547z M253.284,48.891l-1.115-3.279c-0.254-0.744-0.423-1.42-0.592-2.08h-0.034
		c-0.169,0.677-0.354,1.37-0.575,2.063l-1.115,3.296H253.284z"/>
	<path fill="none" stroke="#8376A6" stroke-width="9" stroke-miterlimit="10" d="M258.049,53.625V42.23h1.605l3.652,5.766
		c0.845,1.336,1.504,2.536,2.045,3.702l0.034-0.017c-0.136-1.521-0.169-2.908-0.169-4.683V42.23h1.387v11.396h-1.488l-3.618-5.782
		c-0.794-1.268-1.556-2.569-2.13-3.804l-0.051,0.017c0.084,1.438,0.118,2.807,0.118,4.7v4.869H258.049z"/>
</g>
<g enable-background="new    ">
	<path fill="none" stroke="#8376A6" stroke-width="9" stroke-miterlimit="10" d="M207.346,62.647c0.709-0.118,1.639-0.22,2.822-0.22
		c1.455,0,2.52,0.338,3.195,0.946c0.626,0.541,0.998,1.37,0.998,2.384c0,1.031-0.305,1.843-0.879,2.435
		c-0.777,0.829-2.046,1.252-3.482,1.252c-0.44,0-0.846-0.018-1.184-0.102v4.564h-1.471V62.647z M208.817,68.141
		c0.32,0.085,0.727,0.119,1.217,0.119c1.775,0,2.857-0.862,2.857-2.435c0-1.505-1.065-2.232-2.688-2.232
		c-0.643,0-1.133,0.051-1.386,0.119V68.141z"/>
	<path fill="none" stroke="#8376A6" stroke-width="9" stroke-miterlimit="10" d="M216.76,70.323l-1.184,3.584h-1.521l3.871-11.396
		h1.775l3.889,11.396h-1.572l-1.217-3.584H216.76z M220.497,69.172l-1.115-3.279c-0.254-0.744-0.424-1.42-0.592-2.08h-0.035
		c-0.168,0.677-0.354,1.37-0.574,2.063l-1.115,3.296H220.497z"/>
	<path fill="none" stroke="#8376A6" stroke-width="9" stroke-miterlimit="10" d="M226.124,63.762h-3.467v-1.251h8.438v1.251h-3.482
		v10.145h-1.488V63.762z"/>
	<path fill="none" stroke="#8376A6" stroke-width="9" stroke-miterlimit="10" d="M233.831,62.511v11.396h-1.471V62.511H233.831z"/>
	<path fill="none" stroke="#8376A6" stroke-width="9" stroke-miterlimit="10" d="M236.196,72.115
		c0.659,0.405,1.623,0.744,2.637,0.744c1.506,0,2.385-0.795,2.385-1.944c0-1.065-0.609-1.674-2.147-2.266
		c-1.86-0.659-3.009-1.623-3.009-3.229c0-1.775,1.471-3.094,3.686-3.094c1.166,0,2.012,0.271,2.519,0.558l-0.405,1.2
		c-0.372-0.202-1.133-0.541-2.164-0.541c-1.556,0-2.147,0.931-2.147,1.708c0,1.065,0.693,1.589,2.266,2.198
		c1.927,0.743,2.907,1.674,2.907,3.347c0,1.759-1.301,3.28-3.989,3.28c-1.099,0-2.3-0.321-2.908-0.727L236.196,72.115z"/>
	<path fill="none" stroke="#8376A6" stroke-width="9" stroke-miterlimit="10" d="M244.528,72.115
		c0.659,0.405,1.623,0.744,2.637,0.744c1.506,0,2.385-0.795,2.385-1.944c0-1.065-0.609-1.674-2.147-2.266
		c-1.86-0.659-3.009-1.623-3.009-3.229c0-1.775,1.471-3.094,3.686-3.094c1.166,0,2.012,0.271,2.519,0.558l-0.405,1.2
		c-0.372-0.202-1.133-0.541-2.164-0.541c-1.556,0-2.147,0.931-2.147,1.708c0,1.065,0.693,1.589,2.266,2.198
		c1.927,0.743,2.907,1.674,2.907,3.347c0,1.759-1.301,3.28-3.989,3.28c-1.099,0-2.3-0.321-2.908-0.727L244.528,72.115z"/>
	<path fill="none" stroke="#8376A6" stroke-width="9" stroke-miterlimit="10" d="M254.534,62.511v11.396h-1.471V62.511H254.534z"/>
	<path fill="none" stroke="#8376A6" stroke-width="9" stroke-miterlimit="10" d="M263.002,68.564h-4.43v4.108h4.938v1.234h-6.408
		V62.511h6.154v1.234h-4.684v3.602h4.43V68.564z"/>
	<path fill="none" stroke="#8376A6" stroke-width="9" stroke-miterlimit="10" d="M265.418,62.663
		c0.743-0.152,1.809-0.236,2.822-0.236c1.572,0,2.588,0.287,3.297,0.93c0.575,0.507,0.896,1.285,0.896,2.164
		c0,1.505-0.947,2.502-2.146,2.908v0.051c0.879,0.304,1.402,1.115,1.673,2.299c0.372,1.59,0.643,2.688,0.88,3.128h-1.521
		c-0.187-0.321-0.44-1.302-0.762-2.722c-0.338-1.572-0.947-2.164-2.282-2.215h-1.386v4.937h-1.471V62.663z M266.889,67.854h1.504
		c1.572,0,2.57-0.862,2.57-2.164c0-1.471-1.065-2.113-2.621-2.13c-0.71,0-1.217,0.067-1.453,0.135V67.854z"/>
</g>
<text transform="matrix(1.7356 0 0 1 214.8931 63.678)" fill="#8376A6" font-family="'MyriadPro-Regular'" font-size="7.1252">^</text>
<text transform="matrix(1.7356 0 0 1 214.8931 63.678)" fill="none" stroke="#8376A6" stroke-width="9" stroke-miterlimit="10" font-family="'MyriadPro-Regular'" font-size="7.1252">^</text>
<g>
	<path fill="#8376A6" stroke="#8376A6" stroke-width="9" stroke-miterlimit="10" d="M108.042,22.193
		c0,1.384-1.383,2.562-4.148,3.535c-2.766,0.975-6.098,1.461-9.992,1.461c-5.08,0-11.305-0.775-18.671-2.329
		c-3.586,1.693-6.881,4.271-9.887,7.729c-3.006,3.457-6.273,8.432-9.802,14.924c1.75,0.283,3.203,0.508,4.361,0.678
		c1.58-3.641,3.838-5.462,6.774-5.462c2.004,0,3.006,0.776,3.006,2.329c0,1.242-0.671,2.251-2.012,3.027
		c-1.341,0.775-3.098,1.164-5.271,1.164h-0.847c-0.085,0.112-0.438,0.86-1.059,2.244c-0.706,1.637-1.723,3.027-3.049,4.17
		c-1.327,1.143-2.569,1.715-3.726,1.715c-0.396,0-0.593-0.084-0.593-0.254c0-0.142,0.141-0.254,0.423-0.338
		c1.948-0.595,3.923-3.205,5.928-7.834c-0.819-0.084-2.005-0.255-3.557-0.509l-0.805-0.169c-0.396,0.706-0.974,1.751-1.735,3.133
		c-2.428,4.348-4.396,7.453-5.906,9.316c-1.511,1.861-3.551,3.697-6.118,5.504c-6.832,4.799-13.888,7.197-21.17,7.197
		c-4.291,0-7.806-0.896-10.543-2.689c-2.738-1.791-4.107-4.1-4.107-6.922c0-1.41,0.416-2.617,1.249-3.619S8.612,58.69,9.77,58.69
		c1.863,0,2.794,0.945,2.794,2.836c0,0.877-0.289,1.631-0.867,2.267c-0.579,0.635-1.277,0.953-2.096,0.953
		c-1.384,0-2.075-0.662-2.075-1.99c0.085-0.678,0-1.017-0.254-1.017c-0.536,0-0.805,0.748-0.805,2.244
		c0,2.371,1.234,4.396,3.705,6.076c2.47,1.678,5.454,2.519,8.955,2.519c5.504,0,10.458-1.644,14.861-4.933
		c4.403-3.287,9.229-8.969,14.479-17.042c0.451-0.648,1.115-1.651,1.99-3.007h-0.805c-3.161,0-5.349,1.214-6.563,3.642
		c-0.142,0.396-0.296,0.593-0.466,0.593c-0.226,0-0.339-0.111-0.339-0.338c0-1.13,0.798-2.194,2.393-3.197
		c1.595-1.001,3.281-1.502,5.06-1.502h1.228C58.361,35.615,66.109,28.22,74.21,24.605c-2.174-0.479-4.432-1.028-6.774-1.649
		c-7.565-1.977-13.437-2.965-17.613-2.965c-0.847,0-1.651,0.028-2.413,0.086c1.213,2.343,1.82,4.981,1.82,7.917
		c0,6.153-2.407,11.953-7.219,17.4c-4.813,5.449-9.957,8.172-15.434,8.172c-2.314,0-4.191-0.727-5.631-2.18
		c-1.439-1.454-2.159-3.352-2.159-5.695c0-5.335,2.773-10.731,8.319-16.194c5.547-5.461,11.735-8.912,18.566-10.353
		c-2.146-3.188-5.435-4.785-9.865-4.785c-7.255,0-13.817,3.529-19.688,10.586c-0.479,0.48-0.748,0.72-0.804,0.72
		c-0.17,0-0.283-0.099-0.339-0.296c0-0.509,1.186-1.862,3.557-4.064c5.476-5.081,11.135-7.621,16.978-7.621
		c5.193,0,8.962,1.765,11.306,5.292c2.991-0.762,6.478-1.143,10.458-1.143c2.512,0,4.826,0.196,6.943,0.592
		c2.117,0.396,7.212,1.553,15.284,3.473c6.294-2.428,12.194-3.641,17.698-3.641c3.246,0,5.863,0.358,7.854,1.079
		C107.045,20.055,108.042,21.008,108.042,22.193z M47.667,26.004c0-1.892-0.466-3.797-1.397-5.717
		c-6.492,0.818-12.575,3.917-18.249,9.294c-5.673,5.378-8.51,10.72-8.51,16.025c0,1.977,0.628,3.655,1.884,5.037
		c1.256,1.385,2.815,2.075,4.679,2.075c4.911,0,9.738-2.942,14.48-8.827C45.296,38.007,47.667,32.044,47.667,26.004z M68.921,45.141
		c0-1.213-0.691-1.82-2.074-1.82c-1.835,0-3.401,1.454-4.7,4.361l-0.338,0.762h1.059c1.749,0,3.196-0.311,4.34-0.932
		C68.35,46.892,68.921,46.102,68.921,45.141z M107.239,22.277c0-0.875-0.926-1.63-2.773-2.266c-1.85-0.635-4.072-0.952-6.67-0.952
		c-6.152,0-11.799,1.073-16.935,3.218l5.673,1.271c4.742,1.101,9.104,1.65,13.084,1.65c2.031,0,3.811-0.297,5.334-0.89
		S107.239,23.039,107.239,22.277z"/>
	<path fill="#8376A6" stroke="#8376A6" stroke-width="9" stroke-miterlimit="10" d="M95.403,58.331c0,0.594-2.063,3.336-6.188,8.225
		c-3.334,4.016-5.963,6.021-7.884,6.021c-1.301,0-2.36-0.486-3.18-1.459c-0.819-0.976-1.229-2.195-1.229-3.664
		c0-1.523,0.451-3.175,1.355-4.953c-2.823,3.953-4.982,6.619-6.479,8.002s-2.949,2.074-4.36,2.074c-1.497,0-2.753-0.642-3.769-1.927
		c-1.017-1.282-1.524-2.899-1.524-4.848c0-5.42,3.824-10.219,11.475-14.396c3.358-1.861,6.068-2.794,8.129-2.794
		c1.749,0,2.95-1.354,2.95,0.339c0,0.479,0.227-0.789,0,0h1.494c0.848,0.197,1.596,0.297,2.244,0.297c0.764,0,1.75-0.1,2.965-0.297
		l-7.494,12.406c-2.598,4.349-3.896,7.213-3.896,8.595c0,1.327,0.552,1.989,1.653,1.989c1.131,0,2.939-1.293,5.428-3.879
		c2.486-2.588,5.018-5.774,7.59-9.563c0.168-0.283,0.324-0.424,0.465-0.424C95.319,58.077,95.403,58.161,95.403,58.331z
		 M83.739,51.322c0-1.383-0.635-2.073-1.904-2.073c-2.598,0-6.006,2.541-10.226,7.622c-4.22,5.08-6.33,9.188-6.33,12.319
		c0,1.836,0.818,2.752,2.456,2.752c1.947,0,5.32-3.229,10.119-9.694C81.777,56.94,83.739,53.299,83.739,51.322z"/>
	<path fill="#8376A6" stroke="#8376A6" stroke-width="9" stroke-miterlimit="10" d="M129.403,58.331
		c0,0.594-2.049,3.336-6.146,8.225c-3.363,4.016-6.006,6.021-7.926,6.021c-1.271,0-2.34-0.494-3.201-1.48
		c-0.861-0.988-1.293-2.203-1.293-3.643c0-1.271,0.26-2.447,0.783-3.535c0.521-1.086,1.885-3.238,4.086-6.457
		c2.287-3.387,3.43-5.545,3.43-6.478c0-1.157-0.607-1.735-1.82-1.735c-4.121,0-10.473,7.648-19.053,22.947
		c-1.385-0.112-2.217-0.168-2.498-0.168c-0.988,0-1.92,0.056-2.795,0.168l6.605-10.457c3.754-5.983,5.631-9.724,5.631-11.221
		c0-0.846-0.354-1.27-1.061-1.27c-1.443,0-4.285,3.041-8.529,9.124c-0.254,0.366-0.451,0.565-0.594,0.594
		c-0.141,0-0.227-0.084-0.254-0.254c0.027-0.144,0.086-0.254,0.17-0.34l0.805-1.062c4.326-5.798,7.238-8.698,8.736-8.698
		c0.961,0,1.781,0.438,2.461,1.313c0.678,0.875,1.018,1.92,1.018,3.133c0,1.808-1.059,4.318-3.176,7.537
		c3.33-4.602,5.893-7.75,7.686-9.443c1.791-1.692,3.449-2.54,4.975-2.54c1.242,0,2.285,0.509,3.133,1.523
		c0.848,1.017,1.27,2.273,1.27,3.768c0,1.894-1.299,4.785-3.895,8.681c-2.654,3.979-3.98,6.521-3.98,7.621
		c0,1.157,0.58,1.735,1.738,1.735c2.516,0,6.855-4.479,13.018-13.44c0.141-0.283,0.281-0.424,0.424-0.424
		C129.317,58.077,129.403,58.161,129.403,58.331z"/>
	<path fill="#8376A6" stroke="#8376A6" stroke-width="9" stroke-miterlimit="10" d="M163.317,58.331
		c0,0.594-2.049,3.336-6.145,8.225c-3.363,4.016-6.006,6.021-7.928,6.021c-1.271,0-2.339-0.494-3.201-1.48
		c-0.861-0.988-1.293-2.203-1.293-3.643c0-1.271,0.262-2.447,0.785-3.535c0.521-1.086,1.883-3.238,4.084-6.457
		c2.286-3.387,3.43-5.545,3.43-6.478c0-1.157-0.607-1.735-1.82-1.735c-4.121,0-10.473,7.648-19.053,22.947
		c-1.383-0.112-2.217-0.168-2.498-0.168c-0.988,0-1.92,0.056-2.795,0.168l6.605-10.457c3.754-5.983,5.631-9.724,5.631-11.221
		c0-0.846-0.354-1.27-1.061-1.27c-1.441,0-4.285,3.041-8.527,9.124c-0.254,0.366-0.453,0.565-0.594,0.594
		c-0.143,0-0.227-0.084-0.254-0.254c0.027-0.144,0.084-0.254,0.168-0.34l0.807-1.062c4.326-5.798,7.238-8.698,8.736-8.698
		c0.961,0,1.781,0.438,2.459,1.313c0.681,0.875,1.019,1.92,1.019,3.133c0,1.808-1.06,4.318-3.175,7.537
		c3.33-4.602,5.892-7.75,7.685-9.443c1.793-1.692,3.451-2.54,4.975-2.54c1.242,0,2.287,0.509,3.133,1.523
		c0.848,1.017,1.271,2.273,1.271,3.768c0,1.894-1.299,4.785-3.896,8.681c-2.652,3.979-3.979,6.521-3.979,7.621
		c0,1.157,0.578,1.735,1.738,1.735c2.516,0,6.854-4.479,13.016-13.44c0.143-0.283,0.283-0.424,0.424-0.424
		C163.233,58.077,163.317,58.161,163.317,58.331z"/>
	<path fill="#8376A6" stroke="#8376A6" stroke-width="9" stroke-miterlimit="10" d="M189.95,58.372c0,0.424-1.555,2.354-4.664,5.793
		c-3.447,3.776-7.94,7.188-13.479,10.233l-2.076,3.726c-4.092,7.34-8.369,12.801-12.828,16.387c-4.6,3.697-8.596,5.547-11.982,5.547
		c-1.155,0-2.123-0.367-2.899-1.102c-0.775-0.734-1.164-1.638-1.164-2.709c0-5.675,6.535-11.545,19.604-17.615
		c1.072-0.535,2.682-1.283,4.826-2.244l0.635-0.381l7.453-13.252c-2.937,4.037-5.068,6.684-6.396,7.938
		c-1.327,1.256-2.666,1.884-4.021,1.884c-1.158,0-2.166-0.494-3.027-1.48c-0.861-0.988-1.291-2.145-1.291-3.473
		c0-1.609,1.002-4.121,3.006-7.537l6.52-11.008c0.65,0.112,1.398,0.17,2.244,0.17c0.734,0,1.75-0.1,3.049-0.297l-8.34,13.549
		c-2.371,3.84-3.557,6.352-3.557,7.537c0,1.27,0.578,1.903,1.734,1.903c3.049,0,7.733-5.403,14.057-16.215l3.896-6.648
		c0.647,0.112,1.438,0.17,2.371,0.17c0.762,0,1.707-0.1,2.836-0.297c-3.5,5.561-8.242,13.719-14.228,24.473
		c3.449-1.775,6.358-3.699,8.733-5.771c2.373-2.069,5.029-4.995,7.97-8.772c0.396-0.508,0.649-0.762,0.764-0.762
		C189.864,58.118,189.95,58.204,189.95,58.372z M165.499,76.727c-0.453,0.254-2.047,1.06-4.785,2.414
		c-12.844,6.379-19.266,12.107-19.266,17.189c0,2.116,1.186,3.176,3.557,3.176c2.992,0,5.972-1.625,8.937-4.869
		c2.963-3.246,6.634-8.934,11.009-17.064L165.499,76.727z"/>
</g>
<rect x="196.362" y="38.865" fill="#FFFFFF" width="2.457" height="39.878"/>
<g enable-background="new    ">
	<path fill="#FFFFFF" d="M209.188,50.041l-1.184,3.584h-1.521l3.872-11.396h1.774l3.889,11.396h-1.572l-1.217-3.584H209.188z
		 M212.924,48.891l-1.115-3.279c-0.254-0.744-0.423-1.42-0.592-2.08h-0.034c-0.169,0.677-0.354,1.37-0.575,2.063l-1.115,3.296
		H212.924z"/>
	<path fill="#FFFFFF" d="M217.69,42.382c0.743-0.152,1.809-0.236,2.822-0.236c1.572,0,2.588,0.287,3.297,0.93
		c0.575,0.507,0.896,1.285,0.896,2.164c0,1.505-0.947,2.502-2.146,2.908v0.051c0.879,0.304,1.402,1.115,1.673,2.299
		c0.372,1.59,0.643,2.688,0.88,3.128h-1.521c-0.187-0.321-0.44-1.302-0.762-2.722c-0.338-1.572-0.947-2.164-2.282-2.215h-1.386
		v4.937h-1.471V42.382z M219.161,47.573h1.504c1.572,0,2.57-0.862,2.57-2.164c0-1.471-1.065-2.113-2.621-2.13
		c-0.71,0-1.217,0.067-1.453,0.135V47.573z"/>
	<path fill="#FFFFFF" d="M229.098,43.481h-3.467V42.23h8.438v1.251h-3.482v10.145h-1.488V43.481z"/>
	<path fill="#FFFFFF" d="M236.804,42.23v11.396h-1.472V42.23H236.804z"/>
	<path fill="#FFFFFF" d="M239.17,51.833c0.658,0.405,1.623,0.744,2.637,0.744c1.505,0,2.385-0.795,2.385-1.944
		c0-1.065-0.609-1.674-2.148-2.266c-1.859-0.659-3.009-1.623-3.009-3.229c0-1.775,1.471-3.094,3.686-3.094
		c1.167,0,2.013,0.271,2.519,0.558l-0.405,1.2c-0.372-0.202-1.132-0.541-2.164-0.541c-1.556,0-2.147,0.931-2.147,1.708
		c0,1.065,0.693,1.589,2.266,2.198c1.928,0.743,2.908,1.674,2.908,3.347c0,1.759-1.302,3.28-3.99,3.28
		c-1.099,0-2.299-0.321-2.908-0.727L239.17,51.833z"/>
	<path fill="#FFFFFF" d="M249.547,50.041l-1.184,3.584h-1.521l3.872-11.396h1.774l3.889,11.396h-1.572l-1.217-3.584H249.547z
		 M253.284,48.891l-1.115-3.279c-0.254-0.744-0.423-1.42-0.592-2.08h-0.034c-0.169,0.677-0.354,1.37-0.575,2.063l-1.115,3.296
		H253.284z"/>
	<path fill="#FFFFFF" d="M258.049,53.625V42.23h1.605l3.652,5.766c0.845,1.336,1.504,2.536,2.045,3.702l0.034-0.017
		c-0.136-1.521-0.169-2.908-0.169-4.683V42.23h1.387v11.396h-1.488l-3.618-5.782c-0.794-1.268-1.556-2.569-2.13-3.804l-0.051,0.017
		c0.084,1.438,0.118,2.807,0.118,4.7v4.869H258.049z"/>
</g>
<g enable-background="new    ">
	<path fill="#FFFFFF" d="M207.346,62.647c0.709-0.118,1.639-0.22,2.822-0.22c1.455,0,2.52,0.338,3.195,0.946
		c0.626,0.541,0.998,1.37,0.998,2.384c0,1.031-0.305,1.843-0.879,2.435c-0.777,0.829-2.046,1.252-3.482,1.252
		c-0.44,0-0.846-0.018-1.184-0.102v4.564h-1.471V62.647z M208.817,68.141c0.32,0.085,0.727,0.119,1.217,0.119
		c1.775,0,2.857-0.862,2.857-2.435c0-1.505-1.065-2.232-2.688-2.232c-0.643,0-1.133,0.051-1.386,0.119V68.141z"/>
	<path fill="#FFFFFF" d="M216.76,70.323l-1.184,3.584h-1.521l3.871-11.396h1.775l3.889,11.396h-1.572l-1.217-3.584H216.76z
		 M220.497,69.172l-1.115-3.279c-0.254-0.744-0.424-1.42-0.592-2.08h-0.035c-0.168,0.677-0.354,1.37-0.574,2.063l-1.115,3.296
		H220.497z"/>
	<path fill="#FFFFFF" d="M226.124,63.762h-3.467v-1.251h8.438v1.251h-3.482v10.145h-1.488V63.762z"/>
	<path fill="#FFFFFF" d="M233.831,62.511v11.396h-1.471V62.511H233.831z"/>
	<path fill="#FFFFFF" d="M236.196,72.115c0.659,0.405,1.623,0.744,2.637,0.744c1.506,0,2.385-0.795,2.385-1.944
		c0-1.065-0.609-1.674-2.147-2.266c-1.86-0.659-3.009-1.623-3.009-3.229c0-1.775,1.471-3.094,3.686-3.094
		c1.166,0,2.012,0.271,2.519,0.558l-0.405,1.2c-0.372-0.202-1.133-0.541-2.164-0.541c-1.556,0-2.147,0.931-2.147,1.708
		c0,1.065,0.693,1.589,2.266,2.198c1.927,0.743,2.907,1.674,2.907,3.347c0,1.759-1.301,3.28-3.989,3.28
		c-1.099,0-2.3-0.321-2.908-0.727L236.196,72.115z"/>
	<path fill="#FFFFFF" d="M244.528,72.115c0.659,0.405,1.623,0.744,2.637,0.744c1.506,0,2.385-0.795,2.385-1.944
		c0-1.065-0.609-1.674-2.147-2.266c-1.86-0.659-3.009-1.623-3.009-3.229c0-1.775,1.471-3.094,3.686-3.094
		c1.166,0,2.012,0.271,2.519,0.558l-0.405,1.2c-0.372-0.202-1.133-0.541-2.164-0.541c-1.556,0-2.147,0.931-2.147,1.708
		c0,1.065,0.693,1.589,2.266,2.198c1.927,0.743,2.907,1.674,2.907,3.347c0,1.759-1.301,3.28-3.989,3.28
		c-1.099,0-2.3-0.321-2.908-0.727L244.528,72.115z"/>
	<path fill="#FFFFFF" d="M254.534,62.511v11.396h-1.471V62.511H254.534z"/>
	<path fill="#FFFFFF" d="M263.002,68.564h-4.43v4.108h4.938v1.234h-6.408V62.511h6.154v1.234h-4.684v3.602h4.43V68.564z"/>
	<path fill="#FFFFFF" d="M265.418,62.663c0.743-0.152,1.809-0.236,2.822-0.236c1.572,0,2.588,0.287,3.297,0.93
		c0.575,0.507,0.896,1.285,0.896,2.164c0,1.505-0.947,2.502-2.146,2.908v0.051c0.879,0.304,1.402,1.115,1.673,2.299
		c0.372,1.59,0.643,2.688,0.88,3.128h-1.521c-0.187-0.321-0.44-1.302-0.762-2.722c-0.338-1.572-0.947-2.164-2.282-2.215h-1.386
		v4.937h-1.471V62.663z M266.889,67.854h1.504c1.572,0,2.57-0.862,2.57-2.164c0-1.471-1.065-2.113-2.621-2.13
		c-0.71,0-1.217,0.067-1.453,0.135V67.854z"/>
</g>
<text transform="matrix(1.7356 0 0 1 214.8931 63.678)" fill="#FFFFFF" font-family="'MyriadPro-Regular'" font-size="7.1252">^</text>
<g enable-background="new    ">
	<path fill="#FFFFFF" d="M108.043,22.193c0,1.384-1.383,2.562-4.149,3.536c-2.767,0.974-6.097,1.46-9.992,1.46
		c-5.081,0-11.305-0.775-18.672-2.328c-3.585,1.693-6.88,4.27-9.886,7.727c-3.006,3.458-6.274,8.434-9.802,14.925
		c1.75,0.283,3.203,0.509,4.361,0.678c1.581-3.642,3.838-5.462,6.774-5.462c2.004,0,3.006,0.776,3.006,2.329
		c0,1.242-0.671,2.251-2.011,3.027c-1.341,0.776-3.098,1.164-5.271,1.164h-0.847c-0.084,0.113-0.438,0.861-1.059,2.244
		c-0.706,1.638-1.722,3.027-3.048,4.17c-1.327,1.144-2.569,1.715-3.726,1.715c-0.396,0-0.593-0.084-0.593-0.254
		c0-0.141,0.141-0.254,0.423-0.339c1.948-0.593,3.923-3.203,5.928-7.833c-0.819-0.084-2.004-0.254-3.557-0.508l-0.804-0.169
		c-0.396,0.706-0.974,1.75-1.736,3.133c-2.428,4.348-4.397,7.452-5.907,9.314c-1.51,1.863-3.55,3.698-6.118,5.505
		c-6.831,4.799-13.887,7.197-21.17,7.197c-4.291,0-7.805-0.896-10.542-2.688c-2.738-1.792-4.107-4.1-4.107-6.923
		c0-1.41,0.416-2.617,1.249-3.619c0.832-1.002,1.827-1.504,2.985-1.504c1.863,0,2.794,0.946,2.794,2.837
		c0,0.876-0.29,1.63-0.868,2.266c-0.579,0.635-1.277,0.952-2.096,0.952c-1.383,0-2.075-0.662-2.075-1.989
		c0.085-0.678,0-1.017-0.254-1.017c-0.537,0-0.805,0.748-0.805,2.244c0,2.371,1.235,4.396,3.705,6.076
		c2.469,1.679,5.455,2.519,8.955,2.519c5.504,0,10.458-1.644,14.861-4.933c4.403-3.288,9.23-8.969,14.48-17.042
		c0.451-0.648,1.115-1.651,1.99-3.006h-0.804c-3.162,0-5.35,1.214-6.563,3.642c-0.141,0.396-0.296,0.593-0.465,0.593
		c-0.227,0-0.339-0.112-0.339-0.339c0-1.129,0.797-2.194,2.392-3.197c1.594-1.001,3.281-1.503,5.06-1.503h1.228
		c7.395-11.178,15.143-18.572,23.245-22.186c-2.174-0.479-4.432-1.03-6.774-1.651c-7.565-1.976-13.437-2.964-17.613-2.964
		c-0.847,0-1.651,0.028-2.414,0.085c1.213,2.343,1.821,4.981,1.821,7.917c0,6.154-2.407,11.955-7.219,17.402
		s-9.957,8.171-15.433,8.171c-2.315,0-4.192-0.727-5.631-2.181c-1.439-1.453-2.159-3.351-2.159-5.694
		c0-5.335,2.773-10.733,8.32-16.195c5.546-5.462,11.734-8.912,18.566-10.352c-2.146-3.189-5.434-4.784-9.865-4.784
		c-7.255,0-13.817,3.528-19.688,10.585c-0.48,0.479-0.749,0.72-0.805,0.72c-0.169,0-0.282-0.099-0.338-0.297
		c0-0.508,1.186-1.863,3.556-4.064c5.476-5.081,11.136-7.621,16.979-7.621c5.193,0,8.961,1.765,11.305,5.292
		c2.992-0.762,6.478-1.143,10.458-1.143c2.512,0,4.827,0.197,6.944,0.593c2.117,0.396,7.211,1.553,15.285,3.472
		c6.294-2.428,12.194-3.642,17.698-3.642c3.246,0,5.864,0.36,7.854,1.08C107.048,20.055,108.043,21.007,108.043,22.193z
		 M47.667,26.003c0-1.891-0.465-3.796-1.397-5.716c-6.493,0.819-12.575,3.917-18.249,9.294c-5.674,5.377-8.51,10.72-8.51,16.025
		c0,1.977,0.628,3.656,1.884,5.039s2.816,2.074,4.679,2.074c4.912,0,9.738-2.942,14.48-8.828
		C45.296,38.007,47.667,32.044,47.667,26.003z M68.921,45.141c0-1.213-0.692-1.82-2.075-1.82c-1.835,0-3.402,1.454-4.7,4.361
		l-0.339,0.762h1.059c1.75,0,3.197-0.311,4.34-0.932C68.35,46.892,68.921,46.101,68.921,45.141z M107.239,22.278
		c0-0.874-0.925-1.63-2.773-2.265c-1.849-0.636-4.072-0.953-6.668-0.953c-6.154,0-11.799,1.073-16.936,3.218l5.673,1.271
		c4.742,1.101,9.103,1.651,13.083,1.651c2.032,0,3.811-0.297,5.335-0.89S107.239,23.04,107.239,22.278z"/>
	<path fill="#FFFFFF" d="M95.405,58.33c0,0.594-2.063,3.336-6.188,8.226c-3.335,4.015-5.963,6.021-7.884,6.021
		c-1.301,0-2.361-0.486-3.18-1.461c-0.82-0.974-1.229-2.194-1.229-3.662c0-1.524,0.451-3.176,1.354-4.954
		c-2.823,3.952-4.982,6.62-6.478,8.003s-2.95,2.074-4.361,2.074c-1.497,0-2.752-0.643-3.768-1.927
		c-1.016-1.283-1.524-2.899-1.524-4.848c0-5.419,3.825-10.218,11.474-14.396c3.359-1.863,6.068-2.794,8.129-2.794
		c1.75,0,2.625,0.847,2.625,2.54c0,0.48-0.113,1.115-0.339,1.905l2.16-4.107c0.847,0.198,1.594,0.297,2.244,0.297
		c0.762,0,1.75-0.099,2.964-0.297L83.91,61.358c-2.597,4.347-3.895,7.212-3.895,8.595c0,1.327,0.551,1.99,1.653,1.99
		c1.131,0,2.94-1.294,5.428-3.88c2.487-2.587,5.017-5.774,7.589-9.563c0.169-0.281,0.325-0.423,0.466-0.423
		C95.32,58.076,95.405,58.16,95.405,58.33z M83.74,51.323c0-1.382-0.635-2.074-1.905-2.074c-2.597,0-6.005,2.54-10.225,7.621
		c-4.22,5.081-6.33,9.188-6.33,12.321c0,1.835,0.818,2.752,2.456,2.752c1.948,0,5.32-3.231,10.119-9.696
		C81.778,56.941,83.74,53.299,83.74,51.323z"/>
	<path fill="#FFFFFF" d="M129.404,58.33c0,0.594-2.049,3.336-6.146,8.226c-3.363,4.015-6.005,6.021-7.927,6.021
		c-1.271,0-2.338-0.494-3.201-1.481c-0.862-0.988-1.292-2.202-1.292-3.642c0-1.271,0.261-2.448,0.783-3.535
		c0.522-1.086,1.884-3.239,4.086-6.457c2.286-3.387,3.43-5.547,3.43-6.478c0-1.157-0.607-1.736-1.821-1.736
		c-4.122,0-10.473,7.649-19.053,22.948c-1.383-0.113-2.216-0.169-2.498-0.169c-0.988,0-1.919,0.056-2.794,0.169l6.605-10.458
		c3.753-5.983,5.631-9.724,5.631-11.22c0-0.847-0.354-1.271-1.061-1.271c-1.443,0-4.285,3.041-8.528,9.124
		c-0.255,0.367-0.453,0.565-0.594,0.593c-0.142,0-0.226-0.085-0.254-0.254c0.028-0.142,0.084-0.255,0.169-0.339l0.806-1.061
		c4.325-5.799,7.237-8.698,8.736-8.698c0.961,0,1.781,0.438,2.459,1.313c0.679,0.875,1.019,1.92,1.019,3.133
		c0,1.807-1.059,4.318-3.176,7.536c3.331-4.6,5.892-7.748,7.685-9.441s3.451-2.54,4.975-2.54c1.242,0,2.287,0.508,3.133,1.523
		c0.847,1.017,1.27,2.272,1.27,3.769c0,1.892-1.298,4.784-3.895,8.68c-2.654,3.98-3.98,6.521-3.98,7.621
		c0,1.158,0.58,1.736,1.738,1.736c2.516,0,6.854-4.48,13.017-13.443c0.141-0.281,0.282-0.423,0.424-0.423
		C129.319,58.076,129.404,58.16,129.404,58.33z"/>
	<path fill="#FFFFFF" d="M163.318,58.33c0,0.594-2.049,3.336-6.146,8.226c-3.363,4.015-6.006,6.021-7.928,6.021
		c-1.271,0-2.338-0.494-3.2-1.481c-0.862-0.988-1.292-2.202-1.292-3.642c0-1.271,0.26-2.448,0.783-3.535
		c0.521-1.086,1.884-3.239,4.086-6.457c2.285-3.387,3.43-5.547,3.43-6.478c0-1.157-0.607-1.736-1.821-1.736
		c-4.122,0-10.473,7.649-19.053,22.948c-1.383-0.113-2.216-0.169-2.498-0.169c-0.988,0-1.919,0.056-2.794,0.169l6.605-10.458
		c3.753-5.983,5.631-9.724,5.631-11.22c0-0.847-0.354-1.271-1.061-1.271c-1.443,0-4.285,3.041-8.528,9.124
		c-0.255,0.367-0.453,0.565-0.594,0.593c-0.142,0-0.226-0.085-0.254-0.254c0.028-0.142,0.084-0.255,0.169-0.339l0.806-1.061
		c4.325-5.799,7.237-8.698,8.736-8.698c0.961,0,1.781,0.438,2.459,1.313c0.679,0.875,1.019,1.92,1.019,3.133
		c0,1.807-1.059,4.318-3.176,7.536c3.331-4.6,5.892-7.748,7.684-9.441c1.793-1.693,3.451-2.54,4.976-2.54
		c1.241,0,2.286,0.508,3.134,1.523c0.846,1.017,1.27,2.272,1.27,3.769c0,1.892-1.299,4.784-3.895,8.68
		c-2.654,3.98-3.98,6.521-3.98,7.621c0,1.158,0.58,1.736,1.738,1.736c2.516,0,6.854-4.48,13.017-13.443
		c0.142-0.281,0.282-0.423,0.424-0.423C163.233,58.076,163.318,58.16,163.318,58.33z"/>
	<path fill="#FFFFFF" d="M189.95,58.372c0,0.424-1.555,2.354-4.662,5.793c-3.448,3.777-7.941,7.188-13.48,10.233l-2.074,3.726
		c-4.094,7.339-8.369,12.801-12.829,16.386c-4.601,3.697-8.595,5.546-11.982,5.546c-1.157,0-2.124-0.367-2.899-1.101
		c-0.777-0.734-1.165-1.638-1.165-2.71c0-5.673,6.534-11.545,19.604-17.613c1.072-0.536,2.681-1.284,4.827-2.244l0.635-0.381
		l7.451-13.252c-2.936,4.036-5.066,6.683-6.393,7.938c-1.327,1.256-2.668,1.884-4.022,1.884c-1.157,0-2.167-0.494-3.027-1.481
		c-0.861-0.988-1.292-2.146-1.292-3.472c0-1.609,1.002-4.121,3.007-7.537l6.521-11.008c0.648,0.112,1.396,0.169,2.244,0.169
		c0.733,0,1.75-0.099,3.048-0.297L165.118,62.5c-2.371,3.84-3.557,6.352-3.557,7.537c0,1.271,0.578,1.905,1.736,1.905
		c3.049,0,7.733-5.405,14.057-16.217l3.895-6.646c0.65,0.112,1.44,0.169,2.371,0.169c0.763,0,1.708-0.099,2.838-0.297
		c-3.501,5.562-8.242,13.719-14.227,24.473c3.447-1.775,6.357-3.698,8.732-5.771c2.373-2.072,5.031-4.996,7.97-8.773
		c0.396-0.508,0.649-0.762,0.763-0.762C189.866,58.118,189.95,58.203,189.95,58.372z M165.499,76.727
		c-0.451,0.254-2.047,1.059-4.784,2.413c-12.843,6.379-19.265,12.109-19.265,17.19c0,2.117,1.186,3.176,3.557,3.176
		c2.992,0,5.97-1.624,8.934-4.869c2.964-3.246,6.633-8.934,11.008-17.063L165.499,76.727z"/>
</g>
<g enable-background="new    ">
	<path fill="none" stroke="#FFFFFF" stroke-miterlimit="10" d="M108.043,22.193c0,1.384-1.383,2.562-4.149,3.536
		c-2.767,0.974-6.097,1.46-9.992,1.46c-5.081,0-11.305-0.775-18.672-2.328c-3.585,1.693-6.88,4.27-9.886,7.727
		c-3.006,3.458-6.274,8.434-9.802,14.925c1.75,0.283,3.203,0.509,4.361,0.678c1.581-3.642,3.838-5.462,6.774-5.462
		c2.004,0,3.006,0.776,3.006,2.329c0,1.242-0.671,2.251-2.011,3.027c-1.341,0.776-3.098,1.164-5.271,1.164h-0.847
		c-0.084,0.113-0.438,0.861-1.059,2.244c-0.706,1.638-1.722,3.027-3.048,4.17c-1.327,1.144-2.569,1.715-3.726,1.715
		c-0.396,0-0.593-0.084-0.593-0.254c0-0.141,0.141-0.254,0.423-0.339c1.948-0.593,3.923-3.203,5.928-7.833
		c-0.819-0.084-2.004-0.254-3.557-0.508l-0.804-0.169c-0.396,0.706-0.974,1.75-1.736,3.133c-2.428,4.348-4.397,7.452-5.907,9.314
		c-1.51,1.863-3.55,3.698-6.118,5.505c-6.831,4.799-13.887,7.197-21.17,7.197c-4.291,0-7.805-0.896-10.542-2.688
		c-2.738-1.792-4.107-4.1-4.107-6.923c0-1.41,0.416-2.617,1.249-3.619c0.832-1.002,1.827-1.504,2.985-1.504
		c1.863,0,2.794,0.946,2.794,2.837c0,0.876-0.29,1.63-0.868,2.266c-0.579,0.635-1.277,0.952-2.096,0.952
		c-1.383,0-2.075-0.662-2.075-1.989c0.085-0.678,0-1.017-0.254-1.017c-0.537,0-0.805,0.748-0.805,2.244
		c0,2.371,1.235,4.396,3.705,6.076c2.469,1.679,5.455,2.519,8.955,2.519c5.504,0,10.458-1.644,14.861-4.933
		c4.403-3.288,9.23-8.969,14.48-17.042c0.451-0.648,1.115-1.651,1.99-3.006h-0.804c-3.162,0-5.35,1.214-6.563,3.642
		c-0.141,0.396-0.296,0.593-0.465,0.593c-0.227,0-0.339-0.112-0.339-0.339c0-1.129,0.797-2.194,2.392-3.197
		c1.594-1.001,3.281-1.503,5.06-1.503h1.228c7.395-11.178,15.143-18.572,23.245-22.186c-2.174-0.479-4.432-1.03-6.774-1.651
		c-7.565-1.976-13.437-2.964-17.613-2.964c-0.847,0-1.651,0.028-2.414,0.085c1.213,2.343,1.821,4.981,1.821,7.917
		c0,6.154-2.407,11.955-7.219,17.402s-9.957,8.171-15.433,8.171c-2.315,0-4.192-0.727-5.631-2.181
		c-1.439-1.453-2.159-3.351-2.159-5.694c0-5.335,2.773-10.733,8.32-16.195c5.546-5.462,11.734-8.912,18.566-10.352
		c-2.146-3.189-5.434-4.784-9.865-4.784c-7.255,0-13.817,3.528-19.688,10.585c-0.48,0.479-0.749,0.72-0.805,0.72
		c-0.169,0-0.282-0.099-0.338-0.297c0-0.508,1.186-1.863,3.556-4.064c5.476-5.081,11.136-7.621,16.979-7.621
		c5.193,0,8.961,1.765,11.305,5.292c2.992-0.762,6.478-1.143,10.458-1.143c2.512,0,4.827,0.197,6.944,0.593
		c2.117,0.396,7.211,1.553,15.285,3.472c6.294-2.428,12.194-3.642,17.698-3.642c3.246,0,5.864,0.36,7.854,1.08
		C107.048,20.055,108.043,21.007,108.043,22.193z M47.667,26.003c0-1.891-0.465-3.796-1.397-5.716
		c-6.493,0.819-12.575,3.917-18.249,9.294c-5.674,5.377-8.51,10.72-8.51,16.025c0,1.977,0.628,3.656,1.884,5.039
		s2.816,2.074,4.679,2.074c4.912,0,9.738-2.942,14.48-8.828C45.296,38.007,47.667,32.044,47.667,26.003z M68.921,45.141
		c0-1.213-0.692-1.82-2.075-1.82c-1.835,0-3.402,1.454-4.7,4.361l-0.339,0.762h1.059c1.75,0,3.197-0.311,4.34-0.932
		C68.35,46.892,68.921,46.101,68.921,45.141z M107.239,22.278c0-0.874-0.925-1.63-2.773-2.265c-1.849-0.636-4.072-0.953-6.668-0.953
		c-6.154,0-11.799,1.073-16.936,3.218l5.673,1.271c4.742,1.101,9.103,1.651,13.083,1.651c2.032,0,3.811-0.297,5.335-0.89
		S107.239,23.04,107.239,22.278z"/>
	<path fill="none" stroke="#FFFFFF" stroke-miterlimit="10" d="M95.405,58.33c0,0.594-2.063,3.336-6.188,8.226
		c-3.335,4.015-5.963,6.021-7.884,6.021c-1.301,0-2.361-0.486-3.18-1.461c-0.82-0.974-1.229-2.194-1.229-3.662
		c0-1.524,0.451-3.176,1.354-4.954c-2.823,3.952-4.982,6.62-6.478,8.003s-2.95,2.074-4.361,2.074c-1.497,0-2.752-0.643-3.768-1.927
		c-1.016-1.283-1.524-2.899-1.524-4.848c0-5.419,3.825-10.218,11.474-14.396c3.359-1.863,6.068-2.794,8.129-2.794
		c1.75,0,2.625,0.847,2.625,2.54c0,0.48-0.113,1.115-0.339,1.905l2.16-4.107c0.847,0.198,1.594,0.297,2.244,0.297
		c0.762,0,1.75-0.099,2.964-0.297L83.91,61.358c-2.597,4.347-3.895,7.212-3.895,8.595c0,1.327,0.551,1.99,1.653,1.99
		c1.131,0,2.94-1.294,5.428-3.88c2.487-2.587,5.017-5.774,7.589-9.563c0.169-0.281,0.325-0.423,0.466-0.423
		C95.32,58.076,95.405,58.16,95.405,58.33z M83.74,51.323c0-1.382-0.635-2.074-1.905-2.074c-2.597,0-6.005,2.54-10.225,7.621
		c-4.22,5.081-6.33,9.188-6.33,12.321c0,1.835,0.818,2.752,2.456,2.752c1.948,0,5.32-3.231,10.119-9.696
		C81.778,56.941,83.74,53.299,83.74,51.323z"/>
	<path fill="none" stroke="#FFFFFF" stroke-miterlimit="10" d="M129.404,58.33c0,0.594-2.049,3.336-6.146,8.226
		c-3.363,4.015-6.005,6.021-7.927,6.021c-1.271,0-2.338-0.494-3.201-1.481c-0.862-0.988-1.292-2.202-1.292-3.642
		c0-1.271,0.261-2.448,0.783-3.535c0.522-1.086,1.884-3.239,4.086-6.457c2.286-3.387,3.43-5.547,3.43-6.478
		c0-1.157-0.607-1.736-1.821-1.736c-4.122,0-10.473,7.649-19.053,22.948c-1.383-0.113-2.216-0.169-2.498-0.169
		c-0.988,0-1.919,0.056-2.794,0.169l6.605-10.458c3.753-5.983,5.631-9.724,5.631-11.22c0-0.847-0.354-1.271-1.061-1.271
		c-1.443,0-4.285,3.041-8.528,9.124c-0.255,0.367-0.453,0.565-0.594,0.593c-0.142,0-0.226-0.085-0.254-0.254
		c0.028-0.142,0.084-0.255,0.169-0.339l0.806-1.061c4.325-5.799,7.237-8.698,8.736-8.698c0.961,0,1.781,0.438,2.459,1.313
		c0.679,0.875,1.019,1.92,1.019,3.133c0,1.807-1.059,4.318-3.176,7.536c3.331-4.6,5.892-7.748,7.685-9.441s3.451-2.54,4.975-2.54
		c1.242,0,2.287,0.508,3.133,1.523c0.847,1.017,1.27,2.272,1.27,3.769c0,1.892-1.298,4.784-3.895,8.68
		c-2.654,3.98-3.98,6.521-3.98,7.621c0,1.158,0.58,1.736,1.738,1.736c2.516,0,6.854-4.48,13.017-13.443
		c0.141-0.281,0.282-0.423,0.424-0.423C129.319,58.076,129.404,58.16,129.404,58.33z"/>
	<path fill="none" stroke="#FFFFFF" stroke-miterlimit="10" d="M163.318,58.33c0,0.594-2.049,3.336-6.146,8.226
		c-3.363,4.015-6.006,6.021-7.928,6.021c-1.271,0-2.338-0.494-3.2-1.481c-0.862-0.988-1.292-2.202-1.292-3.642
		c0-1.271,0.26-2.448,0.783-3.535c0.521-1.086,1.884-3.239,4.086-6.457c2.285-3.387,3.43-5.547,3.43-6.478
		c0-1.157-0.607-1.736-1.821-1.736c-4.122,0-10.473,7.649-19.053,22.948c-1.383-0.113-2.216-0.169-2.498-0.169
		c-0.988,0-1.919,0.056-2.794,0.169l6.605-10.458c3.753-5.983,5.631-9.724,5.631-11.22c0-0.847-0.354-1.271-1.061-1.271
		c-1.443,0-4.285,3.041-8.528,9.124c-0.255,0.367-0.453,0.565-0.594,0.593c-0.142,0-0.226-0.085-0.254-0.254
		c0.028-0.142,0.084-0.255,0.169-0.339l0.806-1.061c4.325-5.799,7.237-8.698,8.736-8.698c0.961,0,1.781,0.438,2.459,1.313
		c0.679,0.875,1.019,1.92,1.019,3.133c0,1.807-1.059,4.318-3.176,7.536c3.331-4.6,5.892-7.748,7.684-9.441
		c1.793-1.693,3.451-2.54,4.976-2.54c1.241,0,2.286,0.508,3.134,1.523c0.846,1.017,1.27,2.272,1.27,3.769
		c0,1.892-1.299,4.784-3.895,8.68c-2.654,3.98-3.98,6.521-3.98,7.621c0,1.158,0.58,1.736,1.738,1.736
		c2.516,0,6.854-4.48,13.017-13.443c0.142-0.281,0.282-0.423,0.424-0.423C163.233,58.076,163.318,58.16,163.318,58.33z"/>
	<path fill="none" stroke="#FFFFFF" stroke-miterlimit="10" d="M189.95,58.372c0,0.424-1.555,2.354-4.662,5.793
		c-3.448,3.777-7.941,7.188-13.48,10.233l-2.074,3.726c-4.094,7.339-8.369,12.801-12.829,16.386
		c-4.601,3.697-8.595,5.546-11.982,5.546c-1.157,0-2.124-0.367-2.899-1.101c-0.777-0.734-1.165-1.638-1.165-2.71
		c0-5.673,6.534-11.545,19.604-17.613c1.072-0.536,2.681-1.284,4.827-2.244l0.635-0.381l7.451-13.252
		c-2.936,4.036-5.066,6.683-6.393,7.938c-1.327,1.256-2.668,1.884-4.022,1.884c-1.157,0-2.167-0.494-3.027-1.481
		c-0.861-0.988-1.292-2.146-1.292-3.472c0-1.609,1.002-4.121,3.007-7.537l6.521-11.008c0.648,0.112,1.396,0.169,2.244,0.169
		c0.733,0,1.75-0.099,3.048-0.297L165.118,62.5c-2.371,3.84-3.557,6.352-3.557,7.537c0,1.271,0.578,1.905,1.736,1.905
		c3.049,0,7.733-5.405,14.057-16.217l3.895-6.646c0.65,0.112,1.44,0.169,2.371,0.169c0.763,0,1.708-0.099,2.838-0.297
		c-3.501,5.562-8.242,13.719-14.227,24.473c3.447-1.775,6.357-3.698,8.732-5.771c2.373-2.072,5.031-4.996,7.97-8.773
		c0.396-0.508,0.649-0.762,0.763-0.762C189.866,58.118,189.95,58.203,189.95,58.372z M165.499,76.727
		c-0.451,0.254-2.047,1.059-4.784,2.413c-12.843,6.379-19.265,12.109-19.265,17.19c0,2.117,1.186,3.176,3.557,3.176
		c2.992,0,5.97-1.624,8.934-4.869c2.964-3.246,6.633-8.934,11.008-17.063L165.499,76.727z"/>
</g>
</svg>
