<?xml version="1.0" encoding="utf-8"?>
<!-- Generator: Adobe Illustrator 16.0.0, SVG Export Plug-In . SVG Version: 6.00 Build 0)  -->
<!DOCTYPE svg PUBLIC "-//W3C//DTD SVG 1.1//EN" "http://www.w3.org/Graphics/SVG/1.1/DTD/svg11.dtd">
<svg version="1.1" id="Layer_1" xmlns="http://www.w3.org/2000/svg" xmlns:xlink="http://www.w3.org/1999/xlink" x="0px" y="0px"
	 width="595.28px" height="841.89px" viewBox="0 0 595.28 841.89" enable-background="new 0 0 595.28 841.89" xml:space="preserve">
<g>
	<rect x="217.156" y="389.528" fill="#8376A6" width="163.315" height="62.149"/>
</g>
<g>
	<g>
		<g>
			<rect x="328.424" y="414.923" fill="#FFFFFF" width="1.223" height="19.846"/>
		</g>
		<g>
			<g>
				<path fill="#FFFFFF" d="M334.807,420.486l-0.59,1.782h-0.756l1.926-5.666h0.883l1.934,5.666h-0.783l-0.605-1.782H334.807z
					 M336.664,419.914l-0.555-1.631c-0.127-0.37-0.211-0.706-0.295-1.034h-0.016c-0.084,0.336-0.178,0.681-0.287,1.026l-0.555,1.64
					H336.664z"/>
				<path fill="#FFFFFF" d="M339.037,416.677c0.369-0.076,0.9-0.118,1.404-0.118c0.781,0,1.285,0.143,1.639,0.462
					c0.287,0.252,0.445,0.639,0.445,1.076c0,0.749-0.471,1.245-1.066,1.446v0.025c0.436,0.151,0.697,0.555,0.832,1.144
					c0.186,0.79,0.318,1.336,0.438,1.555h-0.758c-0.092-0.159-0.219-0.647-0.377-1.353c-0.17-0.782-0.473-1.076-1.137-1.102h-0.689
					v2.455h-0.73V416.677z M339.768,419.258h0.75c0.781,0,1.277-0.429,1.277-1.076c0-0.731-0.529-1.051-1.303-1.06
					c-0.354,0-0.605,0.034-0.725,0.067V419.258z"/>
				<path fill="#FFFFFF" d="M344.713,417.224h-1.723v-0.622h4.195v0.622h-1.732v5.044h-0.74V417.224z"/>
				<path fill="#FFFFFF" d="M348.549,416.602v5.666h-0.73v-5.666H348.549z"/>
				<path fill="#FFFFFF" d="M349.727,421.377c0.328,0.202,0.807,0.37,1.313,0.37c0.748,0,1.186-0.395,1.186-0.967
					c0-0.53-0.303-0.832-1.068-1.126c-0.924-0.328-1.496-0.807-1.496-1.606c0-0.883,0.73-1.539,1.832-1.539
					c0.58,0,1,0.135,1.254,0.277l-0.203,0.597c-0.184-0.101-0.563-0.269-1.076-0.269c-0.773,0-1.066,0.462-1.066,0.849
					c0,0.53,0.344,0.791,1.125,1.093c0.959,0.37,1.447,0.833,1.447,1.665c0,0.875-0.648,1.63-1.984,1.63
					c-0.547,0-1.143-0.159-1.445-0.361L349.727,421.377z"/>
				<path fill="#FFFFFF" d="M354.891,420.486l-0.588,1.782h-0.758l1.926-5.666h0.883l1.934,5.666h-0.781l-0.605-1.782H354.891z
					 M356.748,419.914l-0.555-1.631c-0.125-0.37-0.209-0.706-0.293-1.034h-0.018c-0.084,0.336-0.176,0.681-0.285,1.026l-0.555,1.64
					H356.748z"/>
				<path fill="#FFFFFF" d="M359.123,422.268v-5.666h0.799l1.816,2.867c0.42,0.664,0.748,1.261,1.018,1.841l0.016-0.008
					c-0.066-0.757-0.084-1.446-0.084-2.329v-2.371h0.689v5.666h-0.74l-1.799-2.875c-0.395-0.63-0.773-1.278-1.059-1.892
					l-0.025,0.008c0.041,0.715,0.059,1.396,0.059,2.337v2.421H359.123z"/>
				<path fill="#FFFFFF" d="M333.889,426.762c0.354-0.059,0.816-0.109,1.404-0.109c0.723,0,1.254,0.168,1.59,0.471
					c0.311,0.27,0.496,0.682,0.496,1.186c0,0.514-0.152,0.916-0.438,1.211c-0.387,0.412-1.018,0.622-1.732,0.622
					c-0.219,0-0.42-0.009-0.588-0.05v2.27h-0.732V426.762z M334.621,429.494c0.16,0.042,0.361,0.059,0.605,0.059
					c0.883,0,1.42-0.428,1.42-1.211c0-0.748-0.529-1.109-1.336-1.109c-0.32,0-0.564,0.025-0.689,0.059V429.494z"/>
				<path fill="#FFFFFF" d="M338.574,430.579l-0.588,1.782h-0.758l1.926-5.666h0.883l1.934,5.666h-0.781l-0.605-1.782H338.574z
					 M340.432,430.008l-0.555-1.632c-0.125-0.37-0.209-0.706-0.293-1.034h-0.018c-0.084,0.336-0.176,0.682-0.285,1.025l-0.555,1.641
					H340.432z"/>
				<path fill="#FFFFFF" d="M343.234,427.316h-1.725v-0.621h4.195v0.621h-1.73v5.045h-0.74V427.316z"/>
				<path fill="#FFFFFF" d="M347.068,426.695v5.666h-0.73v-5.666H347.068z"/>
				<path fill="#FFFFFF" d="M348.248,431.471c0.328,0.201,0.807,0.369,1.311,0.369c0.748,0,1.186-0.395,1.186-0.967
					c0-0.529-0.303-0.832-1.066-1.127c-0.926-0.328-1.498-0.807-1.498-1.605c0-0.883,0.732-1.539,1.834-1.539
					c0.58,0,1,0.135,1.252,0.277l-0.201,0.598c-0.186-0.102-0.564-0.27-1.076-0.27c-0.773,0-1.068,0.463-1.068,0.85
					c0,0.529,0.346,0.791,1.127,1.093c0.959,0.37,1.445,0.833,1.445,1.665c0,0.874-0.646,1.631-1.984,1.631
					c-0.545,0-1.143-0.16-1.445-0.361L348.248,431.471z"/>
				<path fill="#FFFFFF" d="M352.395,431.471c0.328,0.201,0.807,0.369,1.311,0.369c0.748,0,1.186-0.395,1.186-0.967
					c0-0.529-0.303-0.832-1.066-1.127c-0.926-0.328-1.498-0.807-1.498-1.605c0-0.883,0.732-1.539,1.834-1.539
					c0.58,0,1,0.135,1.252,0.277l-0.201,0.598c-0.186-0.102-0.564-0.27-1.076-0.27c-0.773,0-1.068,0.463-1.068,0.85
					c0,0.529,0.346,0.791,1.127,1.093c0.959,0.37,1.445,0.833,1.445,1.665c0,0.874-0.646,1.631-1.984,1.631
					c-0.545,0-1.143-0.16-1.445-0.361L352.395,431.471z"/>
				<path fill="#FFFFFF" d="M357.373,426.695v5.666h-0.732v-5.666H357.373z"/>
				<path fill="#FFFFFF" d="M361.586,429.705h-2.203v2.043h2.455v0.613h-3.188v-5.666h3.061v0.613h-2.328v1.791h2.203V429.705z"/>
				<path fill="#FFFFFF" d="M362.789,426.771c0.371-0.075,0.9-0.118,1.404-0.118c0.783,0,1.287,0.143,1.641,0.463
					c0.285,0.252,0.445,0.639,0.445,1.076c0,0.748-0.471,1.244-1.068,1.445v0.025c0.438,0.152,0.697,0.555,0.832,1.145
					c0.186,0.789,0.32,1.336,0.438,1.555h-0.756c-0.094-0.16-0.219-0.647-0.379-1.354c-0.168-0.782-0.471-1.076-1.135-1.102h-0.689
					v2.455h-0.732V426.771z M363.521,429.352h0.748c0.781,0,1.277-0.429,1.277-1.076c0-0.731-0.529-1.051-1.303-1.06
					c-0.354,0-0.605,0.034-0.723,0.067V429.352z"/>
			</g>
			<g>
				<path fill="#FFFFFF" d="M340.512,426.603l-1.027-1.374h-0.012l-1.027,1.374h-0.43l1.271-1.632h0.383l1.271,1.632H340.512z"/>
			</g>
		</g>
	</g>
	<g>
		<path fill="#FFFFFF" d="M284.471,406.626c0,0.688-0.688,1.275-2.065,1.759c-1.377,0.485-3.034,0.727-4.973,0.727
			c-2.528,0-5.626-0.386-9.292-1.159c-1.784,0.843-3.424,2.125-4.92,3.845c-1.496,1.721-3.122,4.197-4.878,7.428
			c0.87,0.141,1.594,0.253,2.17,0.337c0.786-1.812,1.91-2.718,3.371-2.718c0.998,0,1.496,0.387,1.496,1.159
			c0,0.618-0.334,1.12-1.001,1.506c-0.667,0.387-1.541,0.58-2.623,0.58h-0.421c-0.043,0.056-0.219,0.429-0.527,1.117
			c-0.352,0.814-0.856,1.507-1.517,2.076c-0.661,0.568-1.278,0.853-1.854,0.853c-0.197,0-0.295-0.042-0.295-0.126
			c0-0.07,0.07-0.127,0.211-0.169c0.969-0.295,1.952-1.594,2.949-3.898c-0.407-0.042-0.997-0.126-1.77-0.253l-0.4-0.084
			c-0.197,0.351-0.484,0.871-0.864,1.559c-1.208,2.163-2.188,3.708-2.939,4.636c-0.751,0.927-1.767,1.84-3.045,2.739
			c-3.399,2.388-6.911,3.582-10.535,3.582c-2.136,0-3.884-0.446-5.246-1.339c-1.363-0.891-2.044-2.039-2.044-3.444
			c0-0.702,0.207-1.303,0.621-1.802c0.414-0.498,0.909-0.748,1.485-0.748c0.928,0,1.391,0.471,1.391,1.412
			c0,0.436-0.144,0.811-0.432,1.127s-0.636,0.475-1.043,0.475c-0.688,0-1.032-0.33-1.032-0.99c0.042-0.338,0-0.506-0.127-0.506
			c-0.267,0-0.4,0.372-0.4,1.116c0,1.181,0.614,2.188,1.844,3.024c1.229,0.835,2.715,1.254,4.457,1.254
			c2.739,0,5.204-0.818,7.396-2.455s4.594-4.464,7.206-8.481c0.225-0.323,0.555-0.822,0.99-1.496h-0.399
			c-1.574,0-2.663,0.604-3.267,1.812c-0.07,0.197-0.147,0.295-0.231,0.295c-0.113,0-0.169-0.056-0.169-0.168
			c0-0.562,0.396-1.092,1.19-1.591c0.794-0.499,1.633-0.748,2.519-0.748h0.61c3.681-5.563,7.536-9.243,11.568-11.041
			c-1.082-0.239-2.205-0.513-3.371-0.822c-3.765-0.983-6.687-1.475-8.766-1.475c-0.422,0-0.822,0.014-1.201,0.042
			c0.604,1.167,0.906,2.479,0.906,3.94c0,3.063-1.198,5.949-3.593,8.66c-2.396,2.711-4.955,4.067-7.681,4.067
			c-1.151,0-2.086-0.362-2.802-1.086c-0.717-0.723-1.075-1.668-1.075-2.834c0-2.655,1.38-5.341,4.141-8.06
			c2.76-2.718,5.84-4.436,9.239-5.152c-1.067-1.587-2.704-2.381-4.909-2.381c-3.61,0-6.876,1.756-9.798,5.268
			c-0.239,0.239-0.373,0.358-0.4,0.358c-0.084,0-0.141-0.049-0.169-0.147c0-0.253,0.59-0.927,1.771-2.023
			c2.725-2.529,5.541-3.793,8.449-3.793c2.584,0,4.46,0.878,5.626,2.634c1.488-0.379,3.224-0.569,5.204-0.569
			c1.25,0,2.402,0.099,3.456,0.295c1.054,0.197,3.589,0.773,7.606,1.728c3.133-1.208,6.068-1.812,8.808-1.812
			c1.615,0,2.918,0.179,3.909,0.537C283.976,405.562,284.471,406.036,284.471,406.626z M254.423,408.522
			c0-0.941-0.231-1.889-0.695-2.845c-3.23,0.408-6.258,1.949-9.081,4.625c-2.823,2.676-4.235,5.335-4.235,7.976
			c0,0.983,0.313,1.819,0.938,2.507c0.625,0.688,1.401,1.033,2.328,1.033c2.444,0,4.847-1.465,7.207-4.394
			C253.244,414.496,254.423,411.529,254.423,408.522z M265.001,418.046c0-0.604-0.345-0.906-1.032-0.906
			c-0.914,0-1.693,0.724-2.339,2.17l-0.169,0.379h0.526c0.871,0,1.591-0.154,2.16-0.463S265.001,418.524,265.001,418.046z
			 M284.071,406.668c0-0.435-0.461-0.811-1.38-1.127c-0.921-0.316-2.027-0.474-3.319-0.474c-3.063,0-5.872,0.534-8.428,1.601
			l2.823,0.632c2.359,0.548,4.53,0.822,6.511,0.822c1.012,0,1.896-0.147,2.655-0.442
			C283.691,407.385,284.071,407.047,284.071,406.668z"/>
		<path fill="#FFFFFF" d="M278.181,424.609c0,0.297-1.026,1.66-3.079,4.094c-1.66,1.998-2.968,2.998-3.924,2.998
			c-0.647,0-1.175-0.243-1.582-0.728c-0.408-0.485-0.612-1.093-0.612-1.823c0-0.758,0.225-1.58,0.675-2.465
			c-1.405,1.967-2.479,3.295-3.225,3.982c-0.744,0.688-1.468,1.033-2.17,1.033c-0.745,0-1.369-0.32-1.875-0.959
			c-0.506-0.64-0.759-1.443-0.759-2.413c0-2.697,1.903-5.085,5.71-7.164c1.672-0.927,3.021-1.391,4.046-1.391
			c0.871,0,1.307,0.421,1.307,1.264c0,0.239-0.057,0.555-0.169,0.948l1.075-2.044c0.421,0.099,0.793,0.147,1.116,0.147
			c0.379,0,0.871-0.049,1.475-0.147l-3.729,6.174c-1.292,2.163-1.938,3.589-1.938,4.277c0,0.66,0.274,0.99,0.823,0.99
			c0.563,0,1.463-0.645,2.701-1.932c1.237-1.287,2.497-2.873,3.776-4.759c0.085-0.14,0.162-0.21,0.232-0.21
			C278.139,424.484,278.181,424.525,278.181,424.609z M272.376,421.123c0-0.688-0.316-1.033-0.948-1.033
			c-1.292,0-2.988,1.264-5.089,3.792c-2.1,2.529-3.149,4.572-3.149,6.132c0,0.913,0.407,1.37,1.222,1.37
			c0.97,0,2.647-1.609,5.036-4.826C271.4,423.918,272.376,422.106,272.376,421.123z"/>
		<path fill="#FFFFFF" d="M295.101,424.609c0,0.297-1.02,1.66-3.059,4.094c-1.674,1.998-2.989,2.998-3.945,2.998
			c-0.633,0-1.163-0.246-1.593-0.738c-0.429-0.492-0.643-1.096-0.643-1.813c0-0.632,0.129-1.219,0.39-1.759
			c0.26-0.54,0.938-1.612,2.033-3.214c1.138-1.686,1.707-2.76,1.707-3.224c0-0.576-0.303-0.864-0.906-0.864
			c-2.052,0-5.212,3.807-9.482,11.42c-0.688-0.056-1.103-0.084-1.243-0.084c-0.491,0-0.955,0.028-1.391,0.084l3.287-5.204
			c1.868-2.979,2.803-4.839,2.803-5.584c0-0.421-0.176-0.632-0.528-0.632c-0.718,0-2.132,1.514-4.244,4.541
			c-0.126,0.184-0.225,0.281-0.295,0.295c-0.07,0-0.113-0.042-0.127-0.126c0.014-0.07,0.042-0.127,0.085-0.169l0.4-0.527
			c2.152-2.886,3.602-4.329,4.348-4.329c0.479,0,0.887,0.218,1.225,0.653c0.337,0.436,0.506,0.956,0.506,1.56
			c0,0.899-0.526,2.149-1.58,3.75c1.657-2.29,2.933-3.856,3.824-4.699c0.893-0.843,1.718-1.264,2.477-1.264
			c0.617,0,1.138,0.253,1.559,0.758c0.422,0.506,0.633,1.131,0.633,1.875c0,0.941-0.646,2.381-1.939,4.319
			c-1.32,1.981-1.98,3.245-1.98,3.793c0,0.576,0.289,0.864,0.865,0.864c1.252,0,3.411-2.23,6.478-6.69
			c0.071-0.14,0.141-0.21,0.212-0.21C295.059,424.484,295.101,424.525,295.101,424.609z"/>
		<path fill="#FFFFFF" d="M311.979,424.609c0,0.297-1.02,1.66-3.059,4.094c-1.674,1.998-2.988,2.998-3.945,2.998
			c-0.633,0-1.162-0.246-1.592-0.738s-0.643-1.096-0.643-1.813c0-0.632,0.129-1.219,0.389-1.759s0.938-1.612,2.033-3.214
			c1.139-1.686,1.707-2.76,1.707-3.224c0-0.576-0.303-0.864-0.906-0.864c-2.051,0-5.211,3.807-9.482,11.42
			c-0.688-0.056-1.103-0.084-1.243-0.084c-0.491,0-0.955,0.028-1.391,0.084l3.287-5.204c1.868-2.979,2.803-4.839,2.803-5.584
			c0-0.421-0.176-0.632-0.529-0.632c-0.717,0-2.131,1.514-4.244,4.541c-0.126,0.184-0.225,0.281-0.295,0.295
			c-0.07,0-0.113-0.042-0.127-0.126c0.014-0.07,0.042-0.127,0.085-0.169l0.4-0.527c2.152-2.886,3.602-4.329,4.348-4.329
			c0.479,0,0.887,0.218,1.225,0.653c0.336,0.436,0.506,0.956,0.506,1.56c0,0.899-0.527,2.149-1.58,3.75
			c1.656-2.29,2.932-3.856,3.824-4.699s1.717-1.264,2.477-1.264c0.617,0,1.137,0.253,1.559,0.758
			c0.422,0.506,0.633,1.131,0.633,1.875c0,0.941-0.646,2.381-1.939,4.319c-1.32,1.981-1.98,3.245-1.98,3.793
			c0,0.576,0.289,0.864,0.865,0.864c1.252,0,3.41-2.23,6.477-6.69c0.072-0.14,0.141-0.21,0.213-0.21
			C311.938,424.484,311.979,424.525,311.979,424.609z"/>
		<path fill="#FFFFFF" d="M325.232,424.631c0,0.211-0.773,1.172-2.32,2.883c-1.717,1.881-3.951,3.578-6.709,5.093l-1.031,1.854
			c-2.037,3.651-4.166,6.37-6.385,8.154c-2.289,1.84-4.277,2.761-5.963,2.761c-0.576,0-1.057-0.184-1.443-0.548
			c-0.387-0.366-0.58-0.815-0.58-1.349c0-2.824,3.252-5.745,9.756-8.767c0.533-0.266,1.334-0.639,2.402-1.116l0.316-0.189
			l3.709-6.595c-1.463,2.008-2.523,3.325-3.184,3.95s-1.326,0.938-2,0.938c-0.576,0-1.078-0.246-1.508-0.738
			c-0.428-0.492-0.643-1.067-0.643-1.728c0-0.801,0.498-2.051,1.496-3.751l3.246-5.479c0.322,0.057,0.695,0.084,1.115,0.084
			c0.365,0,0.871-0.049,1.518-0.147l-4.15,6.743c-1.18,1.91-1.77,3.16-1.77,3.75c0,0.633,0.287,0.949,0.863,0.949
			c1.518,0,3.848-2.69,6.996-8.07l1.938-3.309c0.324,0.057,0.717,0.084,1.18,0.084c0.379,0,0.85-0.049,1.412-0.147
			c-1.742,2.768-4.102,6.827-7.08,12.179c1.717-0.884,3.164-1.841,4.346-2.872s2.504-2.486,3.967-4.366
			c0.197-0.253,0.324-0.379,0.379-0.379C325.191,424.505,325.232,424.547,325.232,424.631z M313.064,433.766
			c-0.225,0.126-1.02,0.526-2.381,1.201c-6.393,3.175-9.588,6.026-9.588,8.555c0,1.054,0.59,1.58,1.77,1.58
			c1.49,0,2.971-0.808,4.447-2.423c1.475-1.616,3.301-4.446,5.479-8.491L313.064,433.766z"/>
	</g>
</g>
</svg>
