<?xml version="1.0" encoding="utf-8"?>
<!-- Generator: Adobe Illustrator 16.0.0, SVG Export Plug-In . SVG Version: 6.00 Build 0)  -->
<!DOCTYPE svg PUBLIC "-//W3C//DTD SVG 1.1//EN" "http://www.w3.org/Graphics/SVG/1.1/DTD/svg11.dtd">
<svg version="1.1" id="Layer_1" xmlns="http://www.w3.org/2000/svg" xmlns:xlink="http://www.w3.org/1999/xlink" x="0px" y="0px"
	 width="82.219px" height="73.907px" viewBox="0 0 82.219 73.907" enable-background="new 0 0 82.219 73.907" xml:space="preserve">
<g>
	<g>
		<g>
			<path fill="#FFFFFF" d="M43.657,69.986c-1.076,0-2.167-0.255-3.183-0.798c-3.313-1.761-4.57-5.874-2.806-9.185L67.683,3.602
				c1.763-3.31,5.877-4.568,9.185-2.805c3.31,1.763,4.567,5.875,2.805,9.185L49.657,66.385
				C48.439,68.679,46.087,69.986,43.657,69.986z"/>
		</g>
		<g>
			<path fill="#FFFFFF" d="M43.668,69.986c-2.385,0-4.701-1.261-5.941-3.497L6.43,10.088C4.612,6.807,5.793,2.674,9.073,0.854
				c3.277-1.815,7.414-0.637,9.232,2.644l31.297,56.402c1.818,3.279,0.637,7.412-2.642,9.235
				C45.916,69.711,44.783,69.986,43.668,69.986z"/>
		</g>
	</g>
	<g>
		<g>
			<path fill="#8376A6" stroke="#2D273F" stroke-width="1.4169" stroke-miterlimit="10" d="M38.582,72.001
				c-1.077,0-2.17-0.256-3.186-0.797c-3.31-1.762-4.567-5.875-2.805-9.186L62.608,5.617c1.76-3.31,5.874-4.566,9.181-2.805
				c3.313,1.763,4.571,5.875,2.807,9.185L44.582,68.4C43.363,70.694,41.012,72.001,38.582,72.001z"/>
		</g>
		<g>
			<path fill="#8376A6" stroke="#2D273F" stroke-width="1.4169" stroke-miterlimit="10" d="M38.593,72.001
				c-2.389,0-4.705-1.261-5.944-3.497L1.354,12.102C-0.467,8.823,0.718,4.69,3.997,2.869c3.276-1.814,7.411-0.635,9.232,2.644
				l31.294,56.402c1.821,3.279,0.637,7.411-2.642,9.233C40.837,71.727,39.708,72.001,38.593,72.001z"/>
		</g>
	</g>
</g>
</svg>
