<?xml version="1.0" encoding="utf-8"?>
<!-- Generator: Adobe Illustrator 16.0.0, SVG Export Plug-In . SVG Version: 6.00 Build 0)  -->
<!DOCTYPE svg PUBLIC "-//W3C//DTD SVG 1.1//EN" "http://www.w3.org/Graphics/SVG/1.1/DTD/svg11.dtd">
<svg version="1.1" id="Layer_1" xmlns="http://www.w3.org/2000/svg" xmlns:xlink="http://www.w3.org/1999/xlink" x="0px" y="0px"
	 width="59.924px" height="54.06px" viewBox="-0.251 25.095 59.924 54.06" enable-background="new -0.251 25.095 59.924 54.06"
	 xml:space="preserve">
<g>
	<g opacity="0.7">
		<g>
			<path fill="#2D273F" stroke="#2D273F" stroke-width="1.0433" stroke-miterlimit="10" d="M27.373,27.103
				c0.792,0,1.595,0.188,2.344,0.587c2.439,1.298,3.364,4.324,2.065,6.762L9.685,75.981c-1.298,2.438-4.328,3.361-6.764,2.065
				c-2.438-1.3-3.361-4.326-2.063-6.766l22.096-41.528C23.856,28.066,25.585,27.103,27.373,27.103z"/>
		</g>
		<g>
			<path fill="#2D273F" stroke="#2D273F" stroke-width="1.0433" stroke-miterlimit="10" d="M27.366,27.103
				c1.757,0,3.462,0.927,4.374,2.574l23.045,41.526c1.338,2.415,0.468,5.458-1.947,6.797c-2.411,1.338-5.458,0.471-6.797-1.946
				L22.997,34.527c-1.34-2.413-0.469-5.456,1.946-6.798C25.712,27.304,26.546,27.103,27.366,27.103z"/>
		</g>
	</g>
	<g>
		<g>
			<path fill="#8376A6" stroke="#2D273F" stroke-width="1.0433" stroke-miterlimit="10" d="M31.11,25.616
				c0.794,0,1.6,0.19,2.346,0.589c2.439,1.298,3.363,4.322,2.065,6.762L13.423,74.494c-1.298,2.439-4.327,3.361-6.762,2.065
				c-2.439-1.298-3.365-4.326-2.065-6.763l22.099-41.528C27.591,26.579,29.322,25.616,31.11,25.616z"/>
		</g>
		<g>
			<path fill="#8376A6" stroke="#2D273F" stroke-width="1.0433" stroke-miterlimit="10" d="M31.102,25.616
				c1.759,0,3.463,0.928,4.375,2.575l23.045,41.529c1.339,2.415,0.468,5.458-1.946,6.796c-2.412,1.337-5.457,0.47-6.796-1.944
				l-23.043-41.53c-1.341-2.411-0.468-5.456,1.946-6.797C29.449,25.82,30.283,25.616,31.102,25.616z"/>
		</g>
	</g>
</g>
</svg>
