<?xml version="1.0" encoding="utf-8"?>
<!-- Generator: Adobe Illustrator 16.0.0, SVG Export Plug-In . SVG Version: 6.00 Build 0)  -->
<!DOCTYPE svg PUBLIC "-//W3C//DTD SVG 1.1//EN" "http://www.w3.org/Graphics/SVG/1.1/DTD/svg11.dtd">
<svg version="1.1" id="Layer_1" xmlns="http://www.w3.org/2000/svg" xmlns:xlink="http://www.w3.org/1999/xlink" x="0px" y="0px"
	 width="817px" height="297px" viewBox="-513.582 -18.221 817 297" enable-background="new -513.582 -18.221 817 297"
	 xml:space="preserve">
<rect x="54.45" y="85.589" fill="#8376A6" stroke="#8376A6" stroke-width="25.7001" stroke-miterlimit="10" width="7.016" height="113.877"/>
<g enable-background="new    ">
	<path fill="none" stroke="#8376A6" stroke-width="25.7001" stroke-miterlimit="10" d="M91.076,117.505l-3.38,10.234h-4.345
		l11.06-32.544h5.064l11.104,32.544h-4.49l-3.475-10.234H91.076z M101.746,114.22l-3.185-9.364c-0.725-2.122-1.208-4.055-1.69-5.94
		h-0.095c-0.485,1.936-1.012,3.913-1.646,5.893l-3.182,9.412H101.746z"/>
	<path fill="none" stroke="#8376A6" stroke-width="25.7001" stroke-miterlimit="10" d="M115.354,95.634
		c2.125-0.436,5.167-0.676,8.059-0.676c4.49,0,7.39,0.82,9.415,2.658c1.643,1.447,2.56,3.667,2.56,6.177
		c0,4.3-2.705,7.147-6.129,8.305v0.145c2.51,0.87,4.004,3.185,4.78,6.567c1.06,4.54,1.835,7.675,2.51,8.932h-4.342
		c-0.533-0.917-1.258-3.72-2.175-7.774c-0.965-4.486-2.705-6.18-6.517-6.324h-3.957v14.099h-4.203V95.634L115.354,95.634z
		 M119.557,110.455h4.294c4.487,0,7.337-2.46,7.337-6.177c0-4.203-3.04-6.035-7.485-6.085c-2.024,0-3.475,0.192-4.146,0.388V110.455
		z"/>
	<path fill="none" stroke="#8376A6" stroke-width="25.7001" stroke-miterlimit="10" d="M147.931,98.771h-9.899v-3.572h24.094v3.572
		h-9.941v28.971h-4.247V98.771H147.931z"/>
	<path fill="none" stroke="#8376A6" stroke-width="25.7001" stroke-miterlimit="10" d="M169.939,95.198v32.543h-4.206V95.198
		H169.939z"/>
	<path fill="none" stroke="#8376A6" stroke-width="25.7001" stroke-miterlimit="10" d="M176.693,122.622
		c1.879,1.154,4.635,2.125,7.529,2.125c4.3,0,6.81-2.273,6.81-5.553c0-3.042-1.737-4.779-6.132-6.47
		c-5.307-1.882-8.592-4.635-8.592-9.222c0-5.07,4.199-8.834,10.524-8.834c3.335,0,5.75,0.771,7.194,1.592l-1.157,3.428
		c-1.063-0.578-3.232-1.545-6.18-1.545c-4.442,0-6.132,2.657-6.132,4.877c0,3.042,1.979,4.537,6.472,6.277
		c5.505,2.122,8.305,4.779,8.305,9.557c0,5.022-3.717,9.367-11.395,9.367c-3.137,0-6.564-0.918-8.304-2.078L176.693,122.622z"/>
	<path fill="none" stroke="#8376A6" stroke-width="25.7001" stroke-miterlimit="10" d="M206.325,117.505l-3.38,10.234h-4.345
		l11.057-32.544h5.067l11.104,32.544h-4.49l-3.475-10.234H206.325z M216.997,114.22l-3.185-9.364
		c-0.725-2.122-1.207-4.055-1.689-5.94h-0.098c-0.482,1.936-1.01,3.913-1.643,5.893l-3.182,9.412H216.997z"/>
	<path fill="none" stroke="#8376A6" stroke-width="25.7001" stroke-miterlimit="10" d="M230.604,127.74V95.198h4.584l10.43,16.467
		c2.409,3.815,4.295,7.239,5.84,10.569l0.095-0.048c-0.388-4.342-0.482-8.305-0.482-13.371V95.198h3.962v32.543h-4.25
		l-10.331-16.511c-2.268-3.62-4.442-7.337-6.082-10.862l-0.146,0.048c0.24,4.107,0.335,8.015,0.335,13.422v13.903h-3.954V127.74z"/>
</g>
<g enable-background="new    ">
	<path fill="none" stroke="#8376A6" stroke-width="25.7001" stroke-miterlimit="10" d="M85.817,153.5
		c2.024-0.337,4.679-0.627,8.059-0.627c4.155,0,7.195,0.965,9.125,2.702c1.788,1.545,2.85,3.912,2.85,6.807
		c0,2.945-0.87,5.263-2.51,6.952c-2.22,2.368-5.845,3.575-9.944,3.575c-1.255,0-2.415-0.05-3.38-0.29v13.031h-4.2V153.5
		L85.817,153.5z M90.017,169.19c0.915,0.242,2.078,0.34,3.478,0.34c5.067,0,8.157-2.462,8.157-6.952c0-4.3-3.04-6.375-7.674-6.375
		c-1.835,0-3.235,0.146-3.96,0.341V169.19L90.017,169.19z"/>
	<path fill="none" stroke="#8376A6" stroke-width="25.7001" stroke-miterlimit="10" d="M112.699,175.419l-3.38,10.234h-4.345
		l11.055-32.541h5.069l11.104,32.541h-4.49l-3.475-10.234H112.699z M123.372,172.134l-3.185-9.364
		c-0.725-2.125-1.21-4.055-1.69-5.939h-0.101c-0.479,1.933-1.012,3.912-1.637,5.893l-3.185,9.411H123.372z"/>
	<path fill="none" stroke="#8376A6" stroke-width="25.7001" stroke-miterlimit="10" d="M139.439,156.685h-9.899v-3.572h24.097v3.572
		h-9.944v28.969h-4.25v-28.969H139.439z"/>
	<path fill="none" stroke="#8376A6" stroke-width="25.7001" stroke-miterlimit="10" d="M161.447,153.113v32.541h-4.202v-32.541
		H161.447z"/>
	<path fill="none" stroke="#8376A6" stroke-width="25.7001" stroke-miterlimit="10" d="M168.199,180.536
		c1.885,1.157,4.635,2.125,7.532,2.125c4.3,0,6.81-2.27,6.81-5.549c0-3.043-1.737-4.783-6.133-6.473
		c-5.309-1.883-8.589-4.635-8.589-9.22c0-5.069,4.2-8.834,10.524-8.834c3.33,0,5.745,0.772,7.195,1.592l-1.16,3.428
		c-1.06-0.577-3.235-1.545-6.18-1.545c-4.439,0-6.13,2.657-6.13,4.877c0,3.04,1.98,4.537,6.47,6.274
		c5.505,2.122,8.305,4.783,8.305,9.56c0,5.022-3.717,9.367-11.395,9.367c-3.137,0-6.564-0.917-8.302-2.077L168.199,180.536z"/>
	<path fill="none" stroke="#8376A6" stroke-width="25.7001" stroke-miterlimit="10" d="M191.991,180.536
		c1.886,1.157,4.635,2.125,7.532,2.125c4.301,0,6.811-2.27,6.811-5.549c0-3.043-1.738-4.783-6.133-6.473
		c-5.31-1.883-8.589-4.635-8.589-9.22c0-5.069,4.2-8.834,10.524-8.834c3.33,0,5.744,0.772,7.194,1.592l-1.16,3.428
		c-1.06-0.577-3.234-1.545-6.179-1.545c-4.44,0-6.13,2.657-6.13,4.877c0,3.04,1.979,4.537,6.47,6.274
		c5.505,2.122,8.305,4.783,8.305,9.56c0,5.022-3.718,9.367-11.395,9.367c-3.138,0-6.564-0.917-8.302-2.077L191.991,180.536z"/>
	<path fill="none" stroke="#8376A6" stroke-width="25.7001" stroke-miterlimit="10" d="M220.566,153.113v32.541h-4.202v-32.541
		H220.566z"/>
	<path fill="none" stroke="#8376A6" stroke-width="25.7001" stroke-miterlimit="10" d="M244.747,170.397h-12.649v11.732h14.1v3.521
		h-18.299v-32.538h17.574v3.525h-13.375v10.284h12.649V170.397z"/>
	<path fill="none" stroke="#8376A6" stroke-width="25.7001" stroke-miterlimit="10" d="M251.646,153.548
		c2.122-0.436,5.164-0.675,8.059-0.675c4.49,0,7.391,0.819,9.415,2.654c1.64,1.448,2.56,3.67,2.56,6.18
		c0,4.298-2.705,7.145-6.129,8.305v0.146c2.51,0.87,4.004,3.185,4.776,6.564c1.063,4.542,1.838,7.677,2.513,8.932h-4.345
		c-0.532-0.914-1.255-3.717-2.175-7.771c-0.965-4.49-2.705-6.18-6.515-6.325h-3.96v14.097h-4.199V153.548z M255.846,168.369h4.295
		c4.489,0,7.34-2.459,7.34-6.18c0-4.199-3.04-6.031-7.485-6.082c-2.027,0-3.475,0.192-4.149,0.385V168.369z"/>
</g>
<text transform="matrix(1.7356 0 0 1 107.3721 156.4456)" fill="#8376A6" font-family="'MyriadPro-Regular'" font-size="20.3465">^</text>
<text transform="matrix(1.7356 0 0 1 107.3721 156.4456)" fill="none" stroke="#8376A6" stroke-width="25.7001" stroke-miterlimit="10" font-family="'MyriadPro-Regular'" font-size="20.3465">^</text>
<g>
	<path fill="#8376A6" stroke="#8376A6" stroke-width="25.7001" stroke-miterlimit="10" d="M-197.751,37.981
		c0,3.955-3.949,7.317-11.845,10.095c-7.899,2.786-17.414,4.171-28.534,4.171c-14.506,0-32.281-2.211-53.316-6.651
		c-10.24,4.835-19.648,12.197-28.232,22.072c-8.585,9.872-17.914,24.077-27.991,42.616c4.998,0.809,9.147,1.45,12.453,1.935
		c4.512-10.396,10.961-15.597,19.344-15.597c5.724,0,8.584,2.217,8.584,6.651c0,3.547-1.916,6.428-5.746,8.645
		c-3.829,2.211-8.846,3.324-15.052,3.324h-2.418c-0.244,0.317-1.25,2.454-3.024,6.408c-2.017,4.674-4.921,8.642-8.708,11.907
		c-3.788,3.263-7.335,4.897-10.64,4.897c-1.131,0-1.693-0.24-1.693-0.726c0-0.407,0.403-0.725,1.208-0.965
		c5.563-1.701,11.203-9.152,16.928-22.37c-2.338-0.24-5.725-0.73-10.158-1.456l-2.298-0.482c-1.13,2.017-2.781,5-4.955,8.946
		c-6.933,12.418-12.553,21.283-16.864,26.604c-4.315,5.315-10.141,10.558-17.471,15.717c-19.51,13.703-39.659,20.553-60.452,20.553
		c-12.253,0-22.291-2.561-30.106-7.681c-7.819-5.114-11.728-11.706-11.728-19.766c0-4.026,1.188-7.474,3.566-10.335
		c2.379-2.861,5.216-4.294,8.524-4.294c5.319,0,7.978,2.699,7.978,8.098c0,2.505-0.825,4.657-2.476,6.476
		c-1.652,1.813-3.646,2.722-5.984,2.722c-3.953,0-5.926-1.891-5.926-5.684c0.243-1.935,0-2.905-0.725-2.905
		c-1.531,0-2.299,2.136-2.299,6.408c0,6.771,3.525,12.555,10.58,17.351c7.054,4.791,15.574,7.194,25.572,7.194
		c15.717,0,29.863-4.695,42.436-14.088c12.574-9.387,26.354-25.61,41.346-48.664c1.289-1.85,3.185-4.713,5.683-8.587h-2.299
		c-9.025,0-15.273,3.467-18.741,10.399c-0.406,1.132-0.845,1.695-1.33,1.695c-0.646,0-0.968-0.318-0.968-0.965
		c0-3.229,2.278-6.266,6.832-9.13c4.555-2.858,9.37-4.289,14.449-4.289h3.507c21.12-31.925,43.245-53.04,66.378-63.363
		c-6.208-1.367-12.656-2.934-19.343-4.708c-21.602-5.647-38.37-8.466-50.294-8.466c-2.419,0-4.716,0.078-6.891,0.246
		c3.463,6.69,5.196,14.222,5.196,22.607c0,17.568-6.874,34.131-20.613,49.686c-13.745,15.561-28.433,23.336-44.073,23.336
		c-6.607,0-11.967-2.075-16.081-6.225c-4.109-4.152-6.165-9.57-6.165-16.264c0-15.234,7.918-30.642,23.755-46.241
		c15.839-15.594,33.509-25.449,53.016-29.565c-6.128-9.102-15.521-13.665-28.169-13.665c-20.718,0-39.455,10.078-56.22,30.229
		c-1.368,1.372-2.136,2.058-2.297,2.058c-0.485,0-0.807-0.285-0.967-0.845c0-1.456,3.387-5.318,10.157-11.606
		c15.636-14.51,31.796-21.763,48.482-21.763c14.829,0,25.592,5.039,32.284,15.111c8.542-2.175,18.499-3.263,29.864-3.263
		c7.174,0,13.781,0.558,19.826,1.69c6.046,1.129,20.596,4.434,43.645,9.916c17.973-6.933,34.82-10.396,50.539-10.396
		c9.268,0,16.742,1.021,22.428,3.082C-200.599,31.877-197.751,34.599-197.751,37.981z M-370.156,48.865
		c0-5.404-1.33-10.842-3.989-16.325c-18.539,2.334-35.909,11.185-52.111,26.54c-16.199,15.356-24.3,30.61-24.3,45.759
		c0,5.646,1.793,10.438,5.379,14.384c3.586,3.954,8.038,5.926,13.362,5.926c14.022,0,27.807-8.402,41.349-25.207
		C-376.927,83.141-370.156,66.113-370.156,48.865z M-309.464,103.511c0-3.463-1.973-5.197-5.922-5.197
		c-5.24,0-9.713,4.152-13.421,12.454l-0.965,2.175h3.024c4.995,0,9.126-0.887,12.393-2.66
		C-311.094,108.511-309.464,106.255-309.464,103.511z M-200.045,38.221c0-2.499-2.644-4.654-7.918-6.47
		c-5.282-1.813-11.627-2.719-19.046-2.719c-17.567,0-33.692,3.064-48.359,9.188l16.201,3.631c13.54,3.143,25.997,4.71,37.362,4.71
		c5.799,0,10.882-0.848,15.231-2.54C-202.226,42.329-200.045,40.399-200.045,38.221z"/>
	<path fill="#8376A6" stroke="#8376A6" stroke-width="25.7001" stroke-miterlimit="10" d="M-233.844,141.178
		c0,1.695-5.891,9.525-17.67,23.485c-9.521,11.467-17.027,17.195-22.513,17.195c-3.716,0-6.739-1.389-9.081-4.166
		c-2.338-2.789-3.51-6.27-3.51-10.464c0-4.35,1.289-9.068,3.869-14.144c-8.061,11.288-14.226,18.901-18.501,22.85
		c-4.275,3.949-8.42,5.924-12.45,5.924c-4.275,0-7.861-1.835-10.763-5.505c-2.904-3.659-4.352-8.276-4.352-13.843
		c0-15.478,10.92-29.181,32.768-41.11c9.589-5.313,17.327-7.979,23.212-7.979c4.995,0,8.425-3.865,8.425,0.971
		c0,1.366,0.647-2.253,0,0h4.265c2.422,0.561,4.558,0.848,6.408,0.848c2.182,0,4.997-0.287,8.466-0.848l-21.398,35.424
		c-7.419,12.421-11.125,20.597-11.125,24.546c0,3.787,1.576,5.678,4.72,5.678c3.229,0,8.393-3.692,15.5-11.076
		c7.1-7.391,14.329-16.487,21.675-27.307c0.479-0.809,0.924-1.211,1.327-1.211C-234.083,140.452-233.844,140.693-233.844,141.178z
		 M-267.151,121.16c0-3.948-1.813-5.917-5.437-5.917c-7.419,0-17.15,7.256-29.201,21.766c-12.05,14.506-18.076,26.235-18.076,35.176
		c0,5.242,2.337,7.858,7.014,7.858c5.561,0,15.192-9.22,28.896-27.681C-272.753,137.204-267.151,126.808-267.151,121.16z"/>
	<path fill="#8376A6" stroke="#8376A6" stroke-width="25.7001" stroke-miterlimit="10" d="M-136.754,141.178
		c0,1.695-5.85,9.525-17.55,23.485c-9.603,11.467-17.15,17.195-22.632,17.195c-3.629,0-6.682-1.411-9.141-4.228
		c-2.458-2.822-3.692-6.292-3.692-10.402c0-3.631,0.743-6.988,2.236-10.095c1.488-3.101,5.382-9.247,11.668-18.438
		c6.531-9.671,9.795-15.834,9.795-18.5c0-3.302-1.734-4.952-5.198-4.952c-11.768,0-29.907,21.838-54.407,65.524
		c-3.956-0.317-6.332-0.479-7.133-0.479c-2.822,0-5.482,0.162-7.981,0.479l18.861-29.86c10.72-17.084,16.08-27.767,16.08-32.042
		c0-2.415-1.011-3.625-3.03-3.625c-4.121,0-12.237,8.684-24.355,26.055c-0.726,1.043-1.288,1.611-1.697,1.695
		c-0.403,0-0.648-0.24-0.725-0.726c0.077-0.412,0.246-0.725,0.485-0.97l2.299-3.034c12.352-16.557,20.668-24.839,24.946-24.839
		c2.744,0,5.085,1.252,7.027,3.751c1.937,2.498,2.907,5.482,2.907,8.946c0,5.161-3.024,12.331-9.069,21.522
		c9.508-13.141,16.827-22.131,21.947-26.967c5.114-4.829,9.85-7.253,14.207-7.253c3.547,0,6.525,1.456,8.947,4.351
		c2.421,2.902,3.627,6.489,3.627,10.759c0,5.409-3.71,13.664-11.123,24.791c-7.58,11.36-11.365,18.619-11.365,21.763
		c0,3.301,1.655,4.952,4.962,4.952c7.185,0,19.575-12.789,37.174-38.377c0.403-0.81,0.802-1.211,1.21-1.211
		C-137,140.452-136.754,140.693-136.754,141.178z"/>
	<path fill="#8376A6" stroke="#8376A6" stroke-width="25.7001" stroke-miterlimit="10" d="M-39.912,141.178
		c0,1.695-5.851,9.525-17.546,23.485c-9.604,11.467-17.15,17.195-22.638,17.195c-3.63,0-6.681-1.411-9.141-4.228
		c-2.459-2.822-3.692-6.292-3.692-10.402c0-3.631,0.747-6.988,2.242-10.095c1.489-3.101,5.377-9.247,11.662-18.438
		c6.525-9.671,9.794-15.834,9.794-18.5c0-3.302-1.734-4.952-5.198-4.952c-11.768,0-29.905,21.838-54.406,65.524
		c-3.949-0.317-6.33-0.479-7.132-0.479c-2.822,0-5.484,0.162-7.982,0.479l18.861-29.86c10.721-17.084,16.081-27.767,16.081-32.042
		c0-2.415-1.011-3.625-3.03-3.625c-4.115,0-12.236,8.684-24.35,26.055c-0.725,1.043-1.293,1.611-1.696,1.695
		c-0.409,0-0.648-0.24-0.725-0.726c0.077-0.412,0.24-0.725,0.48-0.97l2.305-3.034c12.352-16.557,20.668-24.839,24.946-24.839
		c2.744,0,5.085,1.252,7.021,3.751c1.945,2.498,2.91,5.482,2.91,8.946c0,5.161-3.027,12.331-9.067,21.522
		c9.511-13.141,16.825-22.131,21.945-26.967c5.12-4.829,9.855-7.253,14.208-7.253c3.547,0,6.531,1.456,8.946,4.351
		c2.42,2.902,3.628,6.489,3.628,10.759c0,5.409-3.709,13.664-11.124,24.791c-7.574,11.36-11.364,18.619-11.364,21.763
		c0,3.301,1.651,4.952,4.964,4.952c7.187,0,19.574-12.789,37.17-38.377c0.407-0.81,0.806-1.211,1.21-1.211
		C-40.151,140.452-39.912,140.693-39.912,141.178z"/>
	<path fill="#8376A6" stroke="#8376A6" stroke-width="25.7001" stroke-miterlimit="10" d="M36.143,141.295
		c0,1.21-4.442,6.72-13.319,16.542c-9.844,10.781-22.674,20.524-38.492,29.219l-5.928,10.642
		c-11.685,20.96-23.899,36.554-36.632,46.794c-13.134,10.558-24.545,15.839-34.214,15.839c-3.299,0-6.063-1.048-8.279-3.146
		c-2.211-2.097-3.323-4.679-3.323-7.735c0-16.208,18.66-32.968,55.98-50.302c3.062-1.528,7.661-3.664,13.782-6.408l1.813-1.088
		l21.283-37.842c-8.385,11.528-14.47,19.086-18.263,22.666c-3.792,3.587-7.613,5.383-11.484,5.383c-3.307,0-6.185-1.411-8.645-4.228
		c-2.459-2.822-3.687-6.124-3.687-9.917c0-4.596,2.861-11.768,8.583-21.522l18.62-31.434c1.854,0.317,3.991,0.485,6.408,0.485
		c2.094,0,4.998-0.287,8.706-0.848l-23.815,38.689c-6.771,10.965-10.159,18.137-10.159,21.522c0,3.625,1.651,5.433,4.953,5.433
		c8.706,0,22.08-15.427,40.14-46.303l11.126-18.982c1.846,0.318,4.105,0.485,6.771,0.485c2.175,0,4.875-0.287,8.098-0.848
		c-9.995,15.878-23.536,39.175-40.63,69.884c9.849-5.07,18.157-10.564,24.938-16.481c6.776-5.906,14.362-14.261,22.758-25.048
		c1.132-1.449,1.854-2.175,2.181-2.175C35.895,140.57,36.143,140.815,36.143,141.295z M-33.679,193.707
		c-1.294,0.725-5.845,3.028-13.664,6.894c-36.676,18.215-55.017,34.573-55.017,49.086c0,6.04,3.388,9.068,10.159,9.068
		c8.544,0,17.053-4.641,25.519-13.904c8.461-9.27,18.946-25.511,31.439-48.729L-33.679,193.707z"/>
</g>
<rect x="54.45" y="85.589" fill="#FFFFFF" width="7.016" height="113.877"/>
<g enable-background="new    ">
	<path fill="#FFFFFF" d="M91.076,117.505l-3.38,10.234h-4.345l11.06-32.544h5.064l11.104,32.544h-4.49l-3.475-10.234H91.076z
		 M101.746,114.22l-3.185-9.364c-0.725-2.122-1.208-4.055-1.69-5.94h-0.095c-0.485,1.936-1.012,3.913-1.646,5.893l-3.182,9.412
		H101.746z"/>
	<path fill="#FFFFFF" d="M115.354,95.634c2.125-0.436,5.167-0.676,8.059-0.676c4.49,0,7.39,0.82,9.415,2.658
		c1.643,1.447,2.56,3.667,2.56,6.177c0,4.3-2.705,7.147-6.129,8.305v0.145c2.51,0.87,4.004,3.185,4.78,6.567
		c1.06,4.54,1.835,7.675,2.51,8.932h-4.342c-0.533-0.917-1.258-3.72-2.175-7.774c-0.965-4.486-2.705-6.18-6.517-6.324h-3.957v14.099
		h-4.203V95.634L115.354,95.634z M119.557,110.455h4.294c4.487,0,7.337-2.46,7.337-6.177c0-4.203-3.04-6.035-7.485-6.085
		c-2.024,0-3.475,0.192-4.146,0.388V110.455z"/>
	<path fill="#FFFFFF" d="M147.931,98.771h-9.899v-3.572h24.094v3.572h-9.941v28.971h-4.247V98.771H147.931z"/>
	<path fill="#FFFFFF" d="M169.939,95.198v32.543h-4.206V95.198H169.939z"/>
	<path fill="#FFFFFF" d="M176.693,122.622c1.879,1.154,4.635,2.125,7.529,2.125c4.3,0,6.81-2.273,6.81-5.553
		c0-3.042-1.737-4.779-6.132-6.47c-5.307-1.882-8.592-4.635-8.592-9.222c0-5.07,4.199-8.834,10.524-8.834
		c3.335,0,5.75,0.771,7.194,1.592l-1.157,3.428c-1.063-0.578-3.232-1.545-6.18-1.545c-4.442,0-6.132,2.657-6.132,4.877
		c0,3.042,1.979,4.537,6.472,6.277c5.505,2.122,8.305,4.779,8.305,9.557c0,5.022-3.717,9.367-11.395,9.367
		c-3.137,0-6.564-0.918-8.304-2.078L176.693,122.622z"/>
	<path fill="#FFFFFF" d="M206.325,117.505l-3.38,10.234h-4.345l11.057-32.544h5.067l11.104,32.544h-4.49l-3.475-10.234H206.325z
		 M216.997,114.22l-3.185-9.364c-0.725-2.122-1.207-4.055-1.689-5.94h-0.098c-0.482,1.936-1.01,3.913-1.643,5.893l-3.182,9.412
		H216.997z"/>
	<path fill="#FFFFFF" d="M230.604,127.74V95.198h4.584l10.43,16.467c2.409,3.815,4.295,7.239,5.84,10.569l0.095-0.048
		c-0.388-4.342-0.482-8.305-0.482-13.371V95.198h3.962v32.543h-4.25l-10.331-16.511c-2.268-3.62-4.442-7.337-6.082-10.862
		l-0.146,0.048c0.24,4.107,0.335,8.015,0.335,13.422v13.903h-3.954V127.74z"/>
</g>
<g enable-background="new    ">
	<path fill="#FFFFFF" d="M85.817,153.5c2.024-0.337,4.679-0.627,8.059-0.627c4.155,0,7.195,0.965,9.125,2.702
		c1.788,1.545,2.85,3.912,2.85,6.807c0,2.945-0.87,5.263-2.51,6.952c-2.22,2.368-5.845,3.575-9.944,3.575
		c-1.255,0-2.415-0.05-3.38-0.29v13.031h-4.2V153.5L85.817,153.5z M90.017,169.19c0.915,0.242,2.078,0.34,3.478,0.34
		c5.067,0,8.157-2.462,8.157-6.952c0-4.3-3.04-6.375-7.674-6.375c-1.835,0-3.235,0.146-3.96,0.341V169.19L90.017,169.19z"/>
	<path fill="#FFFFFF" d="M112.699,175.419l-3.38,10.234h-4.345l11.055-32.541h5.069l11.104,32.541h-4.49l-3.475-10.234H112.699z
		 M123.372,172.134l-3.185-9.364c-0.725-2.125-1.21-4.055-1.69-5.939h-0.101c-0.479,1.933-1.012,3.912-1.637,5.893l-3.185,9.411
		H123.372z"/>
	<path fill="#FFFFFF" d="M139.439,156.685h-9.899v-3.572h24.097v3.572h-9.944v28.969h-4.25v-28.969H139.439z"/>
	<path fill="#FFFFFF" d="M161.447,153.113v32.541h-4.202v-32.541H161.447z"/>
	<path fill="#FFFFFF" d="M168.199,180.536c1.885,1.157,4.635,2.125,7.532,2.125c4.3,0,6.81-2.27,6.81-5.549
		c0-3.043-1.737-4.783-6.133-6.473c-5.309-1.883-8.589-4.635-8.589-9.22c0-5.069,4.2-8.834,10.524-8.834
		c3.33,0,5.745,0.772,7.195,1.592l-1.16,3.428c-1.06-0.577-3.235-1.545-6.18-1.545c-4.439,0-6.13,2.657-6.13,4.877
		c0,3.04,1.98,4.537,6.47,6.274c5.505,2.122,8.305,4.783,8.305,9.56c0,5.022-3.717,9.367-11.395,9.367
		c-3.137,0-6.564-0.917-8.302-2.077L168.199,180.536z"/>
	<path fill="#FFFFFF" d="M191.991,180.536c1.886,1.157,4.635,2.125,7.532,2.125c4.301,0,6.811-2.27,6.811-5.549
		c0-3.043-1.738-4.783-6.133-6.473c-5.31-1.883-8.589-4.635-8.589-9.22c0-5.069,4.2-8.834,10.524-8.834
		c3.33,0,5.744,0.772,7.194,1.592l-1.16,3.428c-1.06-0.577-3.234-1.545-6.179-1.545c-4.44,0-6.13,2.657-6.13,4.877
		c0,3.04,1.979,4.537,6.47,6.274c5.505,2.122,8.305,4.783,8.305,9.56c0,5.022-3.718,9.367-11.395,9.367
		c-3.138,0-6.564-0.917-8.302-2.077L191.991,180.536z"/>
	<path fill="#FFFFFF" d="M220.566,153.113v32.541h-4.202v-32.541H220.566z"/>
	<path fill="#FFFFFF" d="M244.747,170.397h-12.649v11.732h14.1v3.521h-18.299v-32.538h17.574v3.525h-13.375v10.284h12.649V170.397z"
		/>
	<path fill="#FFFFFF" d="M251.646,153.548c2.122-0.436,5.164-0.675,8.059-0.675c4.49,0,7.391,0.819,9.415,2.654
		c1.64,1.448,2.56,3.67,2.56,6.18c0,4.298-2.705,7.145-6.129,8.305v0.146c2.51,0.87,4.004,3.185,4.776,6.564
		c1.063,4.542,1.838,7.677,2.513,8.932h-4.345c-0.532-0.914-1.255-3.717-2.175-7.771c-0.965-4.49-2.705-6.18-6.515-6.325h-3.96
		v14.097h-4.199V153.548z M255.846,168.369h4.295c4.489,0,7.34-2.459,7.34-6.18c0-4.199-3.04-6.031-7.485-6.082
		c-2.027,0-3.475,0.192-4.149,0.385V168.369z"/>
</g>
<text transform="matrix(1.7356 0 0 1 107.3721 156.4456)" fill="#FFFFFF" font-family="'MyriadPro-Regular'" font-size="20.3465">^</text>
<g enable-background="new    ">
	<path fill="#FFFFFF" d="M-197.749,37.981c0,3.955-3.949,7.317-11.848,10.098c-7.902,2.783-17.411,4.169-28.534,4.169
		c-14.509,0-32.281-2.211-53.318-6.648c-10.237,4.835-19.646,12.194-28.231,22.066c-8.583,9.875-17.916,24.083-27.99,42.619
		c4.998,0.809,9.147,1.452,12.453,1.935c4.515-10.398,10.961-15.597,19.344-15.597c5.724,0,8.584,2.217,8.584,6.651
		c0,3.547-1.916,6.428-5.743,8.645c-3.829,2.214-8.845,3.324-15.052,3.324h-2.417c-0.24,0.32-1.25,2.457-3.024,6.408
		c-2.016,4.677-4.917,8.642-8.705,11.907c-3.789,3.266-7.335,4.897-10.639,4.897c-1.131,0-1.694-0.24-1.694-0.726
		c0-0.404,0.403-0.725,1.208-0.968c5.563-1.695,11.204-9.146,16.929-22.367c-2.338-0.24-5.722-0.729-10.158-1.453l-2.295-0.482
		c-1.131,2.017-2.782,4.997-4.958,8.949c-6.933,12.414-12.556,21.277-16.867,26.595c-4.313,5.321-10.138,10.561-17.471,15.72
		c-19.506,13.703-39.654,20.553-60.452,20.553c-12.253,0-22.288-2.561-30.103-7.678c-7.818-5.117-11.728-11.707-11.728-19.769
		c0-4.026,1.188-7.474,3.567-10.335c2.376-2.861,5.216-4.294,8.523-4.294c5.319,0,7.979,2.702,7.979,8.101
		c0,2.502-0.829,4.654-2.479,6.473c-1.652,1.813-3.646,2.719-5.984,2.719c-3.95,0-5.926-1.891-5.926-5.681
		c0.243-1.935,0-2.905-0.725-2.905c-1.534,0-2.299,2.136-2.299,6.408c0,6.771,3.528,12.555,10.58,17.351
		c7.051,4.794,15.578,7.194,25.572,7.194c15.717,0,29.863-4.695,42.436-14.088c12.574-9.389,26.357-25.61,41.349-48.664
		c1.288-1.85,3.185-4.713,5.683-8.584h-2.296c-9.028,0-15.276,3.467-18.741,10.399c-0.401,1.132-0.845,1.695-1.327,1.695
		c-0.648,0-0.968-0.321-0.968-0.968c0-3.227,2.275-6.266,6.831-9.13c4.551-2.858,9.369-4.292,14.448-4.292h3.506
		c21.117-31.922,43.242-53.034,66.378-63.355c-6.208-1.367-12.656-2.939-19.344-4.713c-21.602-5.644-38.37-8.463-50.294-8.463
		c-2.419,0-4.715,0.078-6.894,0.243c3.463,6.69,5.2,14.222,5.2,22.607c0,17.571-6.873,34.137-20.614,49.691
		c-13.741,15.555-28.433,23.332-44.07,23.332c-6.61,0-11.97-2.074-16.08-6.227c-4.11-4.149-6.166-9.568-6.166-16.261
		c0-15.234,7.918-30.647,23.758-46.244c15.838-15.597,33.508-25.449,53.016-29.563c-6.128-9.104-15.516-13.661-28.169-13.661
		c-20.717,0-39.455,10.075-56.22,30.226c-1.371,1.369-2.139,2.058-2.299,2.058c-0.482,0-0.804-0.285-0.965-0.848
		c0-1.453,3.387-5.321,10.155-11.606c15.638-14.51,31.799-21.763,48.485-21.763c14.829,0,25.588,5.039,32.281,15.111
		c8.544-2.175,18.499-3.263,29.864-3.263c7.174,0,13.784,0.561,19.83,1.693c6.044,1.129,20.591,4.434,43.646,9.914
		c17.973-6.933,34.822-10.398,50.539-10.398c9.27,0,16.745,1.026,22.428,3.084C-200.59,31.877-197.749,34.596-197.749,37.981z
		 M-370.156,48.863c0-5.401-1.328-10.839-3.989-16.322c-18.542,2.336-35.909,11.185-52.111,26.54s-24.3,30.61-24.3,45.759
		c0,5.646,1.793,10.44,5.379,14.389c3.586,3.949,8.041,5.924,13.362,5.924c14.025,0,27.807-8.402,41.349-25.21
		C-376.927,83.141-370.156,66.113-370.156,48.863z M-309.464,103.511c0-3.463-1.976-5.197-5.924-5.197
		c-5.24,0-9.716,4.152-13.422,12.454l-0.968,2.175h3.024c4.997,0,9.128-0.887,12.393-2.66
		C-311.094,108.511-309.464,106.253-309.464,103.511z M-200.045,38.224c0-2.496-2.641-4.654-7.918-6.467
		c-5.279-1.815-11.627-2.722-19.041-2.722c-17.573,0-33.692,3.064-48.362,9.188l16.201,3.631c13.54,3.143,25.994,4.715,37.359,4.715
		c5.802,0,10.882-0.85,15.234-2.543C-202.22,42.334-200.045,40.402-200.045,38.224z"/>
	<path fill="#FFFFFF" d="M-233.838,141.175c0,1.695-5.891,9.525-17.67,23.488c-9.523,11.465-17.027,17.195-22.513,17.195
		c-3.714,0-6.741-1.389-9.081-4.175c-2.341-2.78-3.509-6.264-3.509-10.455c0-4.353,1.288-9.071,3.866-14.146
		c-8.061,11.286-14.226,18.904-18.499,22.853c-4.271,3.949-8.423,5.924-12.453,5.924c-4.275,0-7.858-1.838-10.76-5.505
		c-2.902-3.662-4.352-8.276-4.352-13.843c0-15.475,10.923-29.178,32.765-41.11c9.592-5.318,17.328-7.979,23.213-7.979
		c4.997,0,7.496,2.421,7.496,7.253c0,1.373-0.322,3.186-0.968,5.441l6.167-11.727c2.419,0.563,4.552,0.848,6.408,0.848
		c2.177,0,4.997-0.284,8.464-0.848l-21.399,35.43c-7.417,12.415-11.123,20.594-11.123,24.546c0,3.787,1.573,5.681,4.72,5.681
		c3.229,0,8.396-3.695,15.501-11.08c7.101-7.387,14.325-16.486,21.67-27.306c0.482-0.804,0.927-1.208,1.33-1.208
		C-234.081,140.449-233.838,140.69-233.838,141.175z M-267.147,121.163c0-3.945-1.814-5.92-5.44-5.92
		c-7.417,0-17.147,7.253-29.199,21.763c-12.049,14.509-18.076,26.235-18.076,35.182c0,5.239,2.337,7.858,7.013,7.858
		c5.563,0,15.193-9.226,28.896-27.686C-272.75,137.206-267.147,126.808-267.147,121.163z"/>
	<path fill="#FFFFFF" d="M-136.751,141.175c0,1.695-5.851,9.525-17.55,23.488c-9.603,11.465-17.147,17.195-22.635,17.195
		c-3.629,0-6.676-1.411-9.141-4.23c-2.461-2.822-3.689-6.289-3.689-10.399c0-3.631,0.746-6.991,2.236-10.095
		c1.491-3.101,5.379-9.25,11.668-18.438c6.528-9.671,9.795-15.839,9.795-18.5c0-3.302-1.734-4.955-5.201-4.955
		c-11.771,0-29.907,21.841-54.407,65.527c-3.95-0.32-6.329-0.482-7.133-0.482c-2.822,0-5.479,0.162-7.978,0.482l18.861-29.863
		c10.717-17.083,16.08-27.767,16.08-32.039c0-2.417-1.011-3.628-3.03-3.628c-4.12,0-12.236,8.684-24.352,26.055
		c-0.729,1.046-1.294,1.611-1.697,1.692c-0.406,0-0.646-0.242-0.725-0.725c0.079-0.407,0.24-0.729,0.482-0.968l2.302-3.031
		c12.35-16.56,20.666-24.839,24.946-24.839c2.744,0,5.086,1.252,7.022,3.751c1.939,2.498,2.91,5.482,2.91,8.946
		c0,5.158-3.024,12.331-9.069,21.52c9.511-13.135,16.824-22.125,21.944-26.961c5.121-4.832,9.855-7.253,14.207-7.253
		c3.547,0,6.531,1.453,8.947,4.351c2.418,2.902,3.627,6.486,3.627,10.761c0,5.404-3.708,13.662-11.123,24.789
		c-7.58,11.363-11.365,18.619-11.365,21.762c0,3.305,1.655,4.956,4.962,4.956c7.185,0,19.572-12.792,37.171-38.386
		c0.403-0.804,0.804-1.208,1.21-1.208C-136.994,140.449-136.751,140.69-136.751,141.175z"/>
	<path fill="#FFFFFF" d="M-39.906,141.175c0,1.695-5.851,9.525-17.552,23.488c-9.604,11.465-17.15,17.195-22.638,17.195
		c-3.63,0-6.676-1.411-9.138-4.23c-2.462-2.822-3.689-6.289-3.689-10.399c0-3.631,0.742-6.991,2.236-10.095
		c1.489-3.101,5.379-9.25,11.668-18.438c6.525-9.671,9.793-15.839,9.793-18.5c0-3.302-1.734-4.955-5.198-4.955
		c-11.774,0-29.908,21.841-54.409,65.527c-3.949-0.32-6.328-0.482-7.132-0.482c-2.822,0-5.481,0.162-7.98,0.482l18.862-29.863
		c10.717-17.083,16.08-27.767,16.08-32.039c0-2.417-1.011-3.628-3.03-3.628c-4.121,0-12.237,8.684-24.352,26.055
		c-0.729,1.046-1.294,1.611-1.697,1.692c-0.406,0-0.646-0.242-0.725-0.725c0.08-0.407,0.24-0.729,0.482-0.968l2.302-3.031
		c12.349-16.56,20.665-24.839,24.946-24.839c2.744,0,5.085,1.252,7.021,3.751c1.939,2.498,2.91,5.482,2.91,8.946
		c0,5.158-3.024,12.331-9.069,21.52c9.509-13.135,16.824-22.125,21.941-26.961c5.12-4.832,9.855-7.253,14.211-7.253
		c3.542,0,6.525,1.453,8.949,4.351c2.415,2.902,3.628,6.486,3.628,10.761c0,5.404-3.712,13.662-11.124,24.789
		c-7.58,11.363-11.364,18.619-11.364,21.762c0,3.305,1.654,4.956,4.961,4.956c7.187,0,19.574-12.792,37.17-38.386
		c0.407-0.804,0.806-1.208,1.21-1.208C-40.151,140.449-39.906,140.69-39.906,141.175z"/>
	<path fill="#FFFFFF" d="M36.143,141.295c0,1.21-4.442,6.72-13.313,16.542c-9.847,10.783-22.675,20.524-38.492,29.219l-5.923,10.642
		c-11.69,20.957-23.898,36.554-36.637,46.791c-13.135,10.558-24.54,15.837-34.214,15.837c-3.305,0-6.065-1.049-8.28-3.144
		c-2.217-2.097-3.325-4.679-3.325-7.738c0-16.202,18.657-32.967,55.98-50.296c3.062-1.531,7.658-3.667,13.784-6.408l1.813-1.088
		l21.277-37.842c-8.385,11.525-14.464,19.083-18.257,22.666c-3.787,3.587-7.618,5.383-11.483,5.383c-3.302,0-6.188-1.411-8.645-4.23
		c-2.457-2.822-3.687-6.127-3.687-9.914c0-4.596,2.861-11.768,8.583-21.522l18.623-31.434c1.852,0.317,3.988,0.482,6.408,0.482
		c2.092,0,4.998-0.284,8.704-0.848l-23.826,38.689c-6.771,10.965-10.159,18.138-10.159,21.522c0,3.628,1.651,5.438,4.958,5.438
		c8.706,0,22.08-15.433,40.14-46.309l11.124-18.977c1.854,0.317,4.113,0.482,6.771,0.482c2.178,0,4.877-0.284,8.104-0.848
		c-9.998,15.881-23.536,39.175-40.628,69.884c9.844-5.07,18.154-10.562,24.936-16.481c6.776-5.915,14.367-14.267,22.761-25.05
		c1.129-1.45,1.852-2.176,2.175-2.176C35.903,140.57,36.143,140.813,36.143,141.295z M-33.679,193.707
		c-1.288,0.725-5.845,3.025-13.662,6.891c-36.673,18.216-55.011,34.579-55.011,49.089c0,6.043,3.388,9.068,10.156,9.068
		c8.544,0,17.047-4.638,25.513-13.904c8.461-9.27,18.94-25.511,31.434-48.726L-33.679,193.707z"/>
</g>
<g enable-background="new    ">
	<path fill="none" stroke="#FFFFFF" stroke-width="2.8556" stroke-miterlimit="10" d="M-197.749,37.981
		c0,3.955-3.949,7.317-11.848,10.098c-7.902,2.783-17.411,4.169-28.534,4.169c-14.509,0-32.281-2.211-53.318-6.648
		c-10.237,4.835-19.646,12.194-28.231,22.066c-8.583,9.875-17.916,24.083-27.99,42.619c4.998,0.809,9.147,1.452,12.453,1.935
		c4.515-10.398,10.961-15.597,19.344-15.597c5.724,0,8.584,2.217,8.584,6.651c0,3.547-1.916,6.428-5.743,8.645
		c-3.829,2.214-8.845,3.324-15.052,3.324h-2.417c-0.24,0.32-1.25,2.457-3.024,6.408c-2.016,4.677-4.917,8.642-8.705,11.907
		c-3.789,3.266-7.335,4.897-10.639,4.897c-1.131,0-1.694-0.24-1.694-0.726c0-0.404,0.403-0.725,1.208-0.968
		c5.563-1.695,11.204-9.146,16.929-22.367c-2.338-0.24-5.722-0.729-10.158-1.453l-2.295-0.482c-1.131,2.017-2.782,4.997-4.958,8.949
		c-6.933,12.414-12.556,21.277-16.867,26.595c-4.313,5.321-10.138,10.561-17.471,15.72c-19.506,13.703-39.654,20.553-60.452,20.553
		c-12.253,0-22.288-2.561-30.103-7.678c-7.818-5.117-11.728-11.707-11.728-19.769c0-4.026,1.188-7.474,3.567-10.335
		c2.376-2.861,5.216-4.294,8.523-4.294c5.319,0,7.979,2.702,7.979,8.101c0,2.502-0.829,4.654-2.479,6.473
		c-1.652,1.813-3.646,2.719-5.984,2.719c-3.95,0-5.926-1.891-5.926-5.681c0.243-1.935,0-2.905-0.725-2.905
		c-1.534,0-2.299,2.136-2.299,6.408c0,6.771,3.528,12.555,10.58,17.351c7.051,4.794,15.578,7.194,25.572,7.194
		c15.717,0,29.863-4.695,42.436-14.088c12.574-9.389,26.357-25.61,41.349-48.664c1.288-1.85,3.185-4.713,5.683-8.584h-2.296
		c-9.028,0-15.276,3.467-18.741,10.399c-0.401,1.132-0.845,1.695-1.327,1.695c-0.648,0-0.968-0.321-0.968-0.968
		c0-3.227,2.275-6.266,6.831-9.13c4.551-2.858,9.369-4.292,14.448-4.292h3.506c21.117-31.922,43.242-53.034,66.378-63.355
		c-6.208-1.367-12.656-2.939-19.344-4.713c-21.602-5.644-38.37-8.463-50.294-8.463c-2.419,0-4.715,0.078-6.894,0.243
		c3.463,6.69,5.2,14.222,5.2,22.607c0,17.571-6.873,34.137-20.614,49.691c-13.741,15.555-28.433,23.332-44.07,23.332
		c-6.61,0-11.97-2.074-16.08-6.227c-4.11-4.149-6.166-9.568-6.166-16.261c0-15.234,7.918-30.647,23.758-46.244
		c15.838-15.597,33.508-25.449,53.016-29.563c-6.128-9.104-15.516-13.661-28.169-13.661c-20.717,0-39.455,10.075-56.22,30.226
		c-1.371,1.369-2.139,2.058-2.299,2.058c-0.482,0-0.804-0.285-0.965-0.848c0-1.453,3.387-5.321,10.155-11.606
		c15.638-14.51,31.799-21.763,48.485-21.763c14.829,0,25.588,5.039,32.281,15.111c8.544-2.175,18.499-3.263,29.864-3.263
		c7.174,0,13.784,0.561,19.83,1.693c6.044,1.129,20.591,4.434,43.646,9.914c17.973-6.933,34.822-10.398,50.539-10.398
		c9.27,0,16.745,1.026,22.428,3.084C-200.59,31.877-197.749,34.596-197.749,37.981z M-370.156,48.863
		c0-5.401-1.328-10.839-3.989-16.322c-18.542,2.336-35.909,11.185-52.111,26.54s-24.3,30.61-24.3,45.759
		c0,5.646,1.793,10.44,5.379,14.389c3.586,3.949,8.041,5.924,13.362,5.924c14.025,0,27.807-8.402,41.349-25.21
		C-376.927,83.141-370.156,66.113-370.156,48.863z M-309.464,103.511c0-3.463-1.976-5.197-5.924-5.197
		c-5.24,0-9.716,4.152-13.422,12.454l-0.968,2.175h3.024c4.997,0,9.128-0.887,12.393-2.66
		C-311.094,108.511-309.464,106.253-309.464,103.511z M-200.045,38.224c0-2.496-2.641-4.654-7.918-6.467
		c-5.279-1.815-11.627-2.722-19.041-2.722c-17.573,0-33.692,3.064-48.362,9.188l16.201,3.631c13.54,3.143,25.994,4.715,37.359,4.715
		c5.802,0,10.882-0.85,15.234-2.543C-202.22,42.334-200.045,40.402-200.045,38.224z"/>
	<path fill="none" stroke="#FFFFFF" stroke-width="2.8556" stroke-miterlimit="10" d="M-233.838,141.175
		c0,1.695-5.891,9.525-17.67,23.488c-9.523,11.465-17.027,17.195-22.513,17.195c-3.714,0-6.741-1.389-9.081-4.175
		c-2.341-2.78-3.509-6.264-3.509-10.455c0-4.353,1.288-9.071,3.866-14.146c-8.061,11.286-14.226,18.904-18.499,22.853
		c-4.271,3.949-8.423,5.924-12.453,5.924c-4.275,0-7.858-1.838-10.76-5.505c-2.902-3.662-4.352-8.276-4.352-13.843
		c0-15.475,10.923-29.178,32.765-41.11c9.592-5.318,17.328-7.979,23.213-7.979c4.997,0,7.496,2.421,7.496,7.253
		c0,1.373-0.322,3.186-0.968,5.441l6.167-11.727c2.419,0.563,4.552,0.848,6.408,0.848c2.177,0,4.997-0.284,8.464-0.848
		l-21.399,35.43c-7.417,12.415-11.123,20.594-11.123,24.546c0,3.787,1.573,5.681,4.72,5.681c3.229,0,8.396-3.695,15.501-11.08
		c7.101-7.387,14.325-16.486,21.67-27.306c0.482-0.804,0.927-1.208,1.33-1.208C-234.081,140.449-233.838,140.69-233.838,141.175z
		 M-267.147,121.163c0-3.945-1.814-5.92-5.44-5.92c-7.417,0-17.147,7.253-29.199,21.763c-12.049,14.509-18.076,26.235-18.076,35.182
		c0,5.239,2.337,7.858,7.013,7.858c5.563,0,15.193-9.226,28.896-27.686C-272.75,137.206-267.147,126.808-267.147,121.163z"/>
	<path fill="none" stroke="#FFFFFF" stroke-width="2.8556" stroke-miterlimit="10" d="M-136.751,141.175
		c0,1.695-5.851,9.525-17.55,23.488c-9.603,11.465-17.147,17.195-22.635,17.195c-3.629,0-6.676-1.411-9.141-4.23
		c-2.461-2.822-3.689-6.289-3.689-10.399c0-3.631,0.746-6.991,2.236-10.095c1.491-3.101,5.379-9.25,11.668-18.438
		c6.528-9.671,9.795-15.839,9.795-18.5c0-3.302-1.734-4.955-5.201-4.955c-11.771,0-29.907,21.841-54.407,65.527
		c-3.95-0.32-6.329-0.482-7.133-0.482c-2.822,0-5.479,0.162-7.978,0.482l18.861-29.863c10.717-17.083,16.08-27.767,16.08-32.039
		c0-2.417-1.011-3.628-3.03-3.628c-4.12,0-12.236,8.684-24.352,26.055c-0.729,1.046-1.294,1.611-1.697,1.692
		c-0.406,0-0.646-0.242-0.725-0.725c0.079-0.407,0.24-0.729,0.482-0.968l2.302-3.031c12.35-16.56,20.666-24.839,24.946-24.839
		c2.744,0,5.086,1.252,7.022,3.751c1.939,2.498,2.91,5.482,2.91,8.946c0,5.158-3.024,12.331-9.069,21.52
		c9.511-13.135,16.824-22.125,21.944-26.961c5.121-4.832,9.855-7.253,14.207-7.253c3.547,0,6.531,1.453,8.947,4.351
		c2.418,2.902,3.627,6.486,3.627,10.761c0,5.404-3.708,13.662-11.123,24.789c-7.58,11.363-11.365,18.619-11.365,21.762
		c0,3.305,1.655,4.956,4.962,4.956c7.185,0,19.572-12.792,37.171-38.386c0.403-0.804,0.804-1.208,1.21-1.208
		C-136.994,140.449-136.751,140.69-136.751,141.175z"/>
	<path fill="none" stroke="#FFFFFF" stroke-width="2.8556" stroke-miterlimit="10" d="M-39.906,141.175
		c0,1.695-5.851,9.525-17.552,23.488c-9.604,11.465-17.15,17.195-22.638,17.195c-3.63,0-6.676-1.411-9.138-4.23
		c-2.462-2.822-3.689-6.289-3.689-10.399c0-3.631,0.742-6.991,2.236-10.095c1.489-3.101,5.379-9.25,11.668-18.438
		c6.525-9.671,9.793-15.839,9.793-18.5c0-3.302-1.734-4.955-5.198-4.955c-11.774,0-29.908,21.841-54.409,65.527
		c-3.949-0.32-6.328-0.482-7.132-0.482c-2.822,0-5.481,0.162-7.98,0.482l18.862-29.863c10.717-17.083,16.08-27.767,16.08-32.039
		c0-2.417-1.011-3.628-3.03-3.628c-4.121,0-12.237,8.684-24.352,26.055c-0.729,1.046-1.294,1.611-1.697,1.692
		c-0.406,0-0.646-0.242-0.725-0.725c0.08-0.407,0.24-0.729,0.482-0.968l2.302-3.031c12.349-16.56,20.665-24.839,24.946-24.839
		c2.744,0,5.085,1.252,7.021,3.751c1.939,2.498,2.91,5.482,2.91,8.946c0,5.158-3.024,12.331-9.069,21.52
		c9.509-13.135,16.824-22.125,21.941-26.961c5.12-4.832,9.855-7.253,14.211-7.253c3.542,0,6.525,1.453,8.949,4.351
		c2.415,2.902,3.628,6.486,3.628,10.761c0,5.404-3.712,13.662-11.124,24.789c-7.58,11.363-11.364,18.619-11.364,21.762
		c0,3.305,1.654,4.956,4.961,4.956c7.187,0,19.574-12.792,37.17-38.386c0.407-0.804,0.806-1.208,1.21-1.208
		C-40.151,140.449-39.906,140.69-39.906,141.175z"/>
	<path fill="none" stroke="#FFFFFF" stroke-width="2.8556" stroke-miterlimit="10" d="M36.143,141.295
		c0,1.21-4.442,6.72-13.313,16.542c-9.847,10.783-22.675,20.524-38.492,29.219l-5.923,10.642
		c-11.69,20.957-23.898,36.554-36.637,46.791c-13.135,10.558-24.54,15.837-34.214,15.837c-3.305,0-6.065-1.049-8.28-3.144
		c-2.217-2.097-3.325-4.679-3.325-7.738c0-16.202,18.657-32.967,55.98-50.296c3.062-1.531,7.658-3.667,13.784-6.408l1.813-1.088
		l21.277-37.842c-8.385,11.525-14.464,19.083-18.257,22.666c-3.787,3.587-7.618,5.383-11.483,5.383c-3.302,0-6.188-1.411-8.645-4.23
		c-2.457-2.822-3.687-6.127-3.687-9.914c0-4.596,2.861-11.768,8.583-21.522l18.623-31.434c1.852,0.317,3.988,0.482,6.408,0.482
		c2.092,0,4.998-0.284,8.704-0.848l-23.826,38.689c-6.771,10.965-10.159,18.138-10.159,21.522c0,3.628,1.651,5.438,4.958,5.438
		c8.706,0,22.08-15.433,40.14-46.309l11.124-18.977c1.854,0.317,4.113,0.482,6.771,0.482c2.178,0,4.877-0.284,8.104-0.848
		c-9.998,15.881-23.536,39.175-40.628,69.884c9.844-5.07,18.154-10.562,24.936-16.481c6.776-5.915,14.367-14.267,22.761-25.05
		c1.129-1.45,1.852-2.176,2.175-2.176C35.903,140.57,36.143,140.813,36.143,141.295z M-33.679,193.707
		c-1.288,0.725-5.845,3.025-13.662,6.891c-36.673,18.216-55.011,34.579-55.011,49.089c0,6.043,3.388,9.068,10.156,9.068
		c8.544,0,17.047-4.638,25.513-13.904c8.461-9.27,18.94-25.511,31.434-48.726L-33.679,193.707z"/>
</g>
</svg>
