<?xml version="1.0" encoding="utf-8"?>
<!-- Generator: Adobe Illustrator 16.0.0, SVG Export Plug-In . SVG Version: 6.00 Build 0)  -->
<!DOCTYPE svg PUBLIC "-//W3C//DTD SVG 1.1//EN" "http://www.w3.org/Graphics/SVG/1.1/DTD/svg11.dtd">
<svg version="1.1" id="Layer_1" xmlns="http://www.w3.org/2000/svg" xmlns:xlink="http://www.w3.org/1999/xlink" x="0px" y="0px"
	 width="22.844px" height="26.238px" viewBox="5.486 30.137 22.844 26.238" enable-background="new 5.486 30.137 22.844 26.238"
	 xml:space="preserve">
<g>
	<rect x="5.486" y="30.136" fill="none" width="22.844" height="26.238"/>
	<path fill="#F9EC31" d="M14.47,34.624c0,2.479-2.012,4.496-4.49,4.496c-2.482,0-4.494-2.018-4.494-4.496
		c0-2.477,2.012-4.488,4.494-4.488C12.459,30.136,14.47,32.148,14.47,34.624z"/>
	<path fill="#F9EC31" d="M25.554,48.804c0,2.482-2.012,4.488-4.494,4.488c-2.477,0-4.488-2.006-4.488-4.488
		c0-2.477,2.012-4.488,4.488-4.488C23.543,44.316,25.554,46.327,25.554,48.804z"/>
</g>
</svg>
