<?xml version="1.0" encoding="utf-8"?>
<!-- Generator: Adobe Illustrator 16.0.0, SVG Export Plug-In . SVG Version: 6.00 Build 0)  -->
<!DOCTYPE svg PUBLIC "-//W3C//DTD SVG 1.1//EN" "http://www.w3.org/Graphics/SVG/1.1/DTD/svg11.dtd">
<svg version="1.1" id="Layer_1" xmlns="http://www.w3.org/2000/svg" xmlns:xlink="http://www.w3.org/1999/xlink" x="0px" y="0px"
	 width="23.281px" height="26.561px" viewBox="176.151 59.913 23.281 26.561" enable-background="new 176.151 59.913 23.281 26.561"
	 xml:space="preserve">
<g>
	<rect x="176.588" y="60.236" fill="none" width="22.844" height="26.238"/>
	<g>
		<path fill="#7E69A3" d="M185.573,64.724c0,2.478-2.012,4.495-4.49,4.495c-2.482,0-4.494-2.018-4.494-4.495
			c0-2.477,2.012-4.488,4.494-4.488C183.561,60.236,185.573,62.247,185.573,64.724z"/>
	</g>
	<g>
		<path fill="#7E69A3" d="M196.657,78.903c0,2.483-2.012,4.489-4.494,4.489c-2.477,0-4.488-2.006-4.488-4.489
			c0-2.477,2.012-4.488,4.488-4.488C194.645,74.414,196.657,76.426,196.657,78.903z"/>
	</g>
</g>
</svg>
